<?xml version="1.0" encoding="utf-8"?>
<!-- Generator: Adobe Illustrator 16.0.0, SVG Export Plug-In . SVG Version: 6.00 Build 0)  -->
<!DOCTYPE svg PUBLIC "-//W3C//DTD SVG 1.1//EN" "http://www.w3.org/Graphics/SVG/1.1/DTD/svg11.dtd" [
	<!ENTITY ns_flows "http://ns.adobe.com/Flows/1.0/">
	<!ENTITY ns_extend "http://ns.adobe.com/Extensibility/1.0/">
	<!ENTITY ns_ai "http://ns.adobe.com/AdobeIllustrator/10.0/">
	<!ENTITY ns_graphs "http://ns.adobe.com/Graphs/1.0/">
]>
<svg version="1.1" id="Layer_1" xmlns:x="&ns_extend;" xmlns:i="&ns_ai;" xmlns:graph="&ns_graphs;"
	 xmlns="http://www.w3.org/2000/svg" xmlns:xlink="http://www.w3.org/1999/xlink" xmlns:a="http://ns.adobe.com/AdobeSVGViewerExtensions/3.0/"
	 x="0px" y="0px" width="864px" height="864px" viewBox="0 0 864 864" enable-background="new 0 0 864 864" xml:space="preserve">
<path fill-rule="evenodd" clip-rule="evenodd" d="M206.464,557.103c-24.089,16.993-27.611,15.805-30.744-9.053
	c9.327-4.832,18.706-9.567,27.878-14.677c0.756-0.421,0.1-3.378,0.1-6.746c-23.432,0-46.377,0-73.119,0
	c2.91-15.454,5.404-28.707,8.258-43.855c22.803,6.559,43.33,12.462,63.858,18.367c1.019-1.486,2.038-2.971,3.058-4.455
	c-11.426-9.972-22.853-19.942-35.371-30.865c6.743-9.041,13.363-17.916,20.75-27.819c4.023,5.815,7.193,10.399,12.191,17.623
	c16.996-94.624,64.938-165.706,146.82-214.656c-12.797-3.437-23.445-5.473-33.461-9.21c-10.558-3.94-19.559-10.734-20.264-23.295
	c-0.744-13.211,8.747-19.413,18.66-25.722c19.422-12.363,39.833-9.861,50.074-11.09c5.215-0.625,10.664-0.152,15.869-0.152
	c2.216-32.498,16.355-44.282,49.086-42.676c26.152,1.283,49.14,11.346,67.652,28.808c18.721,17.658,34.633,38.263,52.297,57.086
	c7.523,8.018,15.436,16.396,24.779,21.858c48.007,28.062,91.955,60.996,123.458,107.405
	c55.065,81.119,74.934,218.414-15.079,311.294c-29.938,30.893-66.763,48.592-107.517,58.255
	c-82.256,19.504-163.652,15.572-242.124-16.779C270.256,670.645,225.696,625.624,206.464,557.103z"/>
<g>
	<path fill-rule="evenodd" clip-rule="evenodd" fill="#ED1C24" d="M487.682,237.484c-20.041-11.298-40.163-22.457-60.063-34
		c-4.594-2.666-8.755-6.315-12.542-10.086c-11.325-11.274-15.04-26.779-9.162-36.542c5.069-8.42,25.656-14.455,37.998-11.134
		c32.482,8.741,56.761,29.21,77.393,54.637c12.056,14.857,22.63,31.036,35.701,44.894c5.737,6.082,16.827,6.717,24.143,11.771
		c49.216,33.991,93.347,73.069,122.566,126.502c2.759,5.045,5.659,10.021,8.174,15.187c0.958,1.968,1.016,4.376,1.831,8.224
		c-12.044,2.742-24.251,6.05-36.654,8.238c-27.279,4.813-54.577,9.707-82.039,13.2c-10.017,1.274-20.531-1.275-30.81-2.175
		c-30.486-2.667-60.969-5.354-91.448-8.092c-8.958-0.805-17.932-2.621-26.831-2.265c-3.192,0.126-8.334,4.926-8.88,8.211
		c-1.918,11.511-1.986,23.316-3.208,34.964c-1.042,9.93,2.42,14.497,12.907,13.397c6.229-0.651,12.581-0.118,19.087-0.118
		c-6.097,35.468,7.467,53.623,50.64,69.353c-23.386,38.989-24.927,42.546-24.857,58.537c4.263-1.453,8.198-2.794,11.607-3.954
		c14.537,17.563,28.354,35.44,43.435,52.177c18.688,20.74,27.589,21.777,50.171,6.057c18.48-12.866,36.23-26.807,53.938-40.736
		c4.852-3.816,8.386-9.31,13.198-14.8c10.333,3.384,21.421,7.014,34.321,11.237c-0.233-32.729-20.361-51.922-39.737-72.849
		c34.16-13.608,36.764-41.486,33.591-72.246c13.178,0,24.819,0,40.085,0c0.524,16.101,2.848,33.063,1.231,49.641
		c-2.913,29.862-10.254,58.464-25.717,85.197c-14.269,24.668-32.2,45.474-54.041,62.996c-42.765,34.31-93.819,46.709-146.804,51.161
		c-69.032,5.8-135.693-4.768-195.437-41.582c-48.482-29.873-81.022-73.404-93.07-129.756c-6.745-31.551-4.907-63.917,2.844-95.225
		c8.69-35.104,20.31-69.206,40.019-100.204c25.657-40.355,58.716-73.057,100.311-96.091c19.243-10.657,40.86-17.25,61.836-24.407
		c6.021-2.053,13.852-0.749,20.349,0.948c14.449,3.775,28.581,8.77,42.842,13.266C486.961,239.84,487.32,238.662,487.682,237.484z"
		/>
	<path fill-rule="evenodd" clip-rule="evenodd" fill="#ED1C24" d="M415.857,212.238c-17.024,6.751-31.932,16.407-47.568,17.786
		c-14.927,1.316-31.038-4.79-45.787-10.007c-7.431-2.629-3.935-17.088,5.067-23.362c23.127-16.119,54.995-13.622,75.25,5.685
		C406.292,205.65,410.485,208.2,415.857,212.238z"/>
</g>
<path fill="#FFFFFF" d="M305.821,668.892C368.91,593.32,438.191,564.631,500.546,568.43c1.845,0.112-10.597,12.553-8.92,31.757
	l11.607-3.954c3.06,4.387,11.438,14.467,15.727,19.286c10.245,11.511,26.16,38.247,49.29,45.981
	c16.076,5.376,45.172-18.974,60.447-30.535c10.66-8.068,17.529,20.439,25.012,31.941C608.25,716.5,423.392,748.783,305.821,668.892z
	"/>
<g>
	<path fill="#FBB040" d="M692.564,600.619c-63.436-20.868-124.234-39.169-190.351-14.172c7.153-21.37,20.521-36.715,34.77-51.417
		c3.765-3.885,8.235-7.101,12.488-10.493c25.978-20.729,44.322-22.613,71.872-4.383
		C651.037,539.804,677.401,563.077,692.564,600.619z"/>
	<path fill="#FBB040" d="M513.834,589.656c15.428-2.309,30.938-6.941,46.264-6.396c25.264,0.896,50.519,4.424,75.56,8.268
		c13.241,2.03,15.585,8.336,5.689,17.021c-18.622,16.345-38.675,31.186-59.131,45.197c-3.838,2.628-14.516,0.715-18.302-2.955
		c-18.119-17.568-34.954-36.464-52.244-54.887C512.391,593.82,513.113,591.737,513.834,589.656z"/>
</g>
<g>
	<path fill-rule="evenodd" clip-rule="evenodd" fill="#FFFFFF" d="M560.26,469.835c-0.235,0,3.609-0.859,6.834,0.189
		c5.769,1.876,15.965,5.137,15.853,7.405c-0.401,8.203-1.895,19.075-7.392,23.766c-13.298,11.349-28.915,20.059-43.984,29.193
		c-3.572,2.165-8.675,2.562-13.059,2.509c-24.938-0.291-47.604-23.65-47.641-48.615c-0.015-9.569,2.782-15.273,14.216-14.623
		c15.298,0.869,30.683,0.215,42.56,0.215c2.947,10.234,4.152,18.739,8.098,25.688c1.322,2.326,12.688,2.716,14.181,0.475
		C554.363,489.371,556.177,480.956,560.26,469.835z"/>
	<path fill-rule="evenodd" clip-rule="evenodd" fill="#FFFFFF" d="M610.563,469.462c3.071,9.404,4.407,17.563,8.518,23.933
		c1.498,2.321,12.801,2.252,14.105,0.029c4.162-7.087,5.728-15.698,9.368-27.07c7.575-0.422,20.1-1.657,32.602-1.437
		c3.182,0.056,8.263,4.207,9.096,7.366c4.685,17.777,1.185,34.349-11.141,48.197c-10.421,11.707-22.992,12.229-36.28,3.489
		c-10.956-7.207-21.793-15.207-33.818-20.008c-12.743-5.087-16.526-13.234-14.589-25.297c2.267-14.101,13.703-8.113,21.807-9.212
		C611.477,469.283,612.831,469.926,610.563,469.462z"/>
</g>
</svg>
