<?xml version="1.0" encoding="utf-8"?>
<!-- Generator: Adobe Illustrator 18.1.1, SVG Export Plug-In . SVG Version: 6.00 Build 0)  -->
<svg version="1.1" id="Layer_1" xmlns="http://www.w3.org/2000/svg" xmlns:xlink="http://www.w3.org/1999/xlink" x="0px" y="0px"
	 viewBox="0 0 158.2 131.7" enable-background="new 0 0 158.2 131.7" xml:space="preserve">
<g>
	<g>
		<path fill="#8DC63F" d="M33.6,45.3h-0.8c-4.3,0-7.9,3.5-7.9,7.9V86c0,4.3,3.5,7.9,7.9,7.9h0.8c4.3,0,7.9-3.5,7.9-7.9V53.2
			C41.4,48.8,37.9,45.3,33.6,45.3"/>
		<path fill="#8DC63F" d="M125.5,45.3h-0.8c-4.3,0-7.9,3.5-7.9,7.9V86c0,4.3,3.5,7.9,7.9,7.9h0.8c4.3,0,7.9-3.5,7.9-7.9V53.2
			C133.3,48.8,129.8,45.3,125.5,45.3"/>
		<path fill="#8DC63F" d="M96.5,12.3l5.4-10c0.2-0.4,0.1-1-0.4-1.2l-0.6-0.3c-0.4-0.2-1-0.1-1.2,0.4l-5.4,10
			c-4.6-2.3-9.8-3.6-15.2-3.6c-5.5,0-10.7,1.3-15.3,3.6l-5.4-10c-0.2-0.4-0.8-0.6-1.2-0.4l-0.6,0.3c-0.4,0.2-0.6,0.8-0.4,1.2l5.4,10
			c-9.6,5.7-16.4,16-17.5,28.1h70.1C113,28.3,106.2,18,96.5,12.3 M64.8,28.3c-1.8,0-3.2-1.4-3.2-3.2c0-1.8,1.4-3.2,3.2-3.2
			s3.2,1.4,3.2,3.2C68,26.9,66.6,28.3,64.8,28.3 M93.3,28.3c-1.8,0-3.2-1.4-3.2-3.2c0-1.8,1.4-3.2,3.2-3.2c1.8,0,3.2,1.4,3.2,3.2
			C96.5,26.9,95.1,28.3,93.3,28.3"/>
		<path fill="#8DC63F" d="M53.5,46.4h-9.6v9.8v7.3v32.9c0,5.4,4.3,9.8,9.6,9.8h4.7c0,0,0,0.1,0,0.1v16.9c0,4.3,3.5,7.9,7.9,7.9
			c4.3,0,7.9-3.5,7.9-7.9v-16.9c0,0,0-0.1,0-0.1h10.4c0,0,0,0.1,0,0.1v16.9c0,4.3,3.5,7.9,7.9,7.9c4.3,0,7.9-3.5,7.9-7.9v-16.9
			c0,0,0-0.1,0-0.1h4.7c5.3,0,9.6-4.4,9.6-9.8V63.5v-7.3v-9.8h-9.6H53.5z M66.6,75.1c1.3,1.3,2.5,2.5,3.8,3.8
			c1.1,1.1,1.1,2.5,0.2,3.5c-1,1-2.5,0.9-3.6-0.2c-2.1-2.1-4.2-4.2-6.3-6.3c-0.1-0.1-0.2-0.2-0.3-0.3c-1-0.9-1.1-2.4-0.2-3.4
			c2.3-2.4,4.7-4.7,7.1-7.1c0.9-0.9,2.3-0.8,3.2,0c0.9,0.9,1,2.3,0.2,3.3c-0.5,0.6-1.1,1.2-1.7,1.8c-1.1,1.1-2.2,2.3-3.4,3.4
			c-0.1,0.1-0.2,0.2-0.3,0.4C65.8,74.3,66.2,74.6,66.6,75.1 M84.5,64.8l-6.8,19.3c-0.3,0.9-1.1,1.4-2,1.4c-0.2,0-0.5,0-0.7-0.1
			c-1.1-0.4-1.7-1.6-1.3-2.7l6.8-19.3c0.4-1.1,1.6-1.7,2.7-1.3C84.3,62.5,84.9,63.7,84.5,64.8 M97.7,75.5c-0.1,0.1-0.2,0.2-0.3,0.3
			c-2.1,2.1-4.2,4.2-6.3,6.3c-1.1,1.1-2.6,1.2-3.6,0.2c-1-1-0.9-2.4,0.2-3.5c1.3-1.3,2.5-2.5,3.8-3.8c0.4-0.4,0.8-0.8,1.3-1.2
			c-0.2-0.2-0.2-0.3-0.3-0.4c-1.1-1.1-2.2-2.3-3.4-3.4c-0.6-0.6-1.2-1.1-1.7-1.8c-0.8-0.9-0.7-2.4,0.2-3.3c0.9-0.8,2.3-0.9,3.2,0
			c2.4,2.3,4.7,4.7,7.1,7.1C98.9,73.1,98.8,74.6,97.7,75.5"/>
	</g>
	<rect fill="none" width="158.2" height="131.7"/>
</g>
</svg>
