<svg id="Layer_1" data-name="Layer 1" xmlns="http://www.w3.org/2000/svg" width="158.2" height="131.7" viewBox="0 0 158.2 131.7">
  <title>iOS-new-icon-01</title>
  <path d="M77.46,73.9a6.93,6.93,0,0,0-2.55-1.79,9.55,9.55,0,0,0-6.78,0,7,7,0,0,0-2.57,1.79,8.06,8.06,0,0,0-1.63,2.85,12.94,12.94,0,0,0,0,7.59,8,8,0,0,0,1.63,2.84A7,7,0,0,0,68.13,89a9.55,9.55,0,0,0,6.78,0,7,7,0,0,0,2.55-1.79,7.94,7.94,0,0,0,1.61-2.84,13.14,13.14,0,0,0,0-7.59A8,8,0,0,0,77.46,73.9Z" fill="#fdd902"/>
  <path d="M117.07,71c-1.18-11.72,5-20,13.92-27.13C124.4,36,116.81,30.78,106.48,30.5c-5.63-.15-10.89,1.44-16,3.56a23,23,0,0,1-17.3.32q-3.24-1.19-6.52-2.26c-9.89-3.25-19-1.47-27.31,4.55C27.22,45.45,23,57.92,23.55,72.24a75.82,75.82,0,0,0,10.26,34.9c3.59,6.31,7.58,12.34,13,17.28,6.36,5.82,13.44,7.68,21.5,3.66,1-.48,2-0.85,2.94-1.27a23,23,0,0,1,13-1.85,45.35,45.35,0,0,1,11,3.24c7.4,3.4,13.89,2.32,19.82-3a28.72,28.72,0,0,0,5.08-5.35c4.66-7.14,9.09-14.43,13.57-21.69a24.6,24.6,0,0,0,1.35-3.08C124.27,90.53,118.22,82.45,117.07,71ZM54.68,93.39H50.29V75.16h4.39V93.39Zm0.43-22.48a2.9,2.9,0,0,1-1.51,1.47,2.75,2.75,0,0,1-1.1.22,2.64,2.64,0,0,1-1.08-.22,2.84,2.84,0,0,1-.88-0.6,2.88,2.88,0,0,1-.6-0.87,2.58,2.58,0,0,1-.22-1.07,2.75,2.75,0,0,1,.22-1.1,2.82,2.82,0,0,1,.6-0.89,2.85,2.85,0,0,1,.88-0.6A2.65,2.65,0,0,1,52.5,67a2.76,2.76,0,0,1,1.1.22,2.94,2.94,0,0,1,.9.6,2.87,2.87,0,0,1,.61.89,2.66,2.66,0,0,1,.23,1.1A2.51,2.51,0,0,1,55.11,70.91ZM83.6,85.78a12.4,12.4,0,0,1-2.65,4.17,12,12,0,0,1-4.11,2.75,14.83,14.83,0,0,1-10.64,0,12.07,12.07,0,0,1-4.12-2.75,12.33,12.33,0,0,1-2.66-4.17,15,15,0,0,1,0-10.47,12.33,12.33,0,0,1,2.66-4.17,12.05,12.05,0,0,1,4.12-2.75,13.91,13.91,0,0,1,5.32-1,13.75,13.75,0,0,1,5.31,1,12.16,12.16,0,0,1,4.11,2.75,12.3,12.3,0,0,1,2.65,4.16A15,15,0,0,1,83.6,85.78Zm19.52,2.83a7.53,7.53,0,0,1-1.74,2.65A8.19,8.19,0,0,1,98.58,93a10.3,10.3,0,0,1-3.79.65,12.2,12.2,0,0,1-2.42-.24,12.74,12.74,0,0,1-2.28-.68,11.86,11.86,0,0,1-2-1.07,10.05,10.05,0,0,1-1.7-1.39L87.74,88a1.78,1.78,0,0,1,.47-0.42,1.15,1.15,0,0,1,.61-0.17,1.7,1.7,0,0,1,1,.36L91,88.58a9.36,9.36,0,0,0,1.65.81,6.39,6.39,0,0,0,2.28.36,4.69,4.69,0,0,0,3.16-1A3.48,3.48,0,0,0,99.22,86a2.58,2.58,0,0,0-.51-1.65,4.09,4.09,0,0,0-1.34-1.08,10,10,0,0,0-1.9-.74q-1.07-.3-2.17-0.66A18.6,18.6,0,0,1,91.13,81a7,7,0,0,1-1.9-1.3,5.89,5.89,0,0,1-1.34-2,7.62,7.62,0,0,1-.51-3,7.08,7.08,0,0,1,2.2-5.1A8.08,8.08,0,0,1,92.22,68a9.61,9.61,0,0,1,3.57-.62,12,12,0,0,1,4.19.71,9.48,9.48,0,0,1,3.27,2l-1.17,2.26a1.32,1.32,0,0,1-.45.55,1.14,1.14,0,0,1-.61.16,1.56,1.56,0,0,1-.8-0.28l-1-.61a8.67,8.67,0,0,0-1.41-.61,6,6,0,0,0-1.91-.28,5.61,5.61,0,0,0-1.73.24,3.65,3.65,0,0,0-1.24.67,2.66,2.66,0,0,0-.76,1,3.35,3.35,0,0,0-.25,1.31,2.27,2.27,0,0,0,.45,1.5,4.22,4.22,0,0,0,1.34,1,12.43,12.43,0,0,0,1.9.76l2.18,0.72a21.11,21.11,0,0,1,2.18.89,7.55,7.55,0,0,1,1.9,1.28,5.8,5.8,0,0,1,1.34,1.89,6.58,6.58,0,0,1,.51,2.72,8.88,8.88,0,0,1-.6,3.34h0Z" fill="#fdd902"/>
  <path d="M81.23,32.28c10-1.32,19.59-10.43,22.35-21.46a43.6,43.6,0,0,0,.9-8c0.11-2-.79-2.7-2.93-2.21a32.45,32.45,0,0,0-14,6.78C81,12.86,77.24,19.81,76.72,26.84,76.7,32.67,76.91,32.86,81.23,32.28Z" fill="#fdd902"/>
  <rect width="158.2" height="131.7" fill="none"/>
</svg>
