<?xml version="1.0" encoding="utf-8"?>
<!-- Generator: Adobe Illustrator 18.1.1, SVG Export Plug-In . SVG Version: 6.00 Build 0)  -->
<svg version="1.1" id="Layer_1" xmlns="http://www.w3.org/2000/svg" xmlns:xlink="http://www.w3.org/1999/xlink" x="0px" y="0px"
	 viewBox="0 0 158.2 131.7" enable-background="new 0 0 158.2 131.7" xml:space="preserve">
<path fill="#FF5300" d="M154.5,0H3.7C1.6,0,0,1.6,0,3.7v124.4c0,2,1.6,3.7,3.7,3.7h150.9c2,0,3.7-1.6,3.7-3.7V3.7
	C158.2,1.6,156.6,0,154.5,0z M150.9,7.3v18.1H7.3V7.3H150.9z M7.3,124.4V32.8h143.5v91.6H7.3z"/>
<path fill="#FF5300" d="M29.6,15.7c0,2.2-1.8,4-4,4c-2.2,0-4-1.8-4-4c0-2.2,1.8-4,4-4C27.8,11.7,29.6,13.5,29.6,15.7"/>
<path fill="#FF5300" d="M39.5,15.7c0,2.2-1.8,4-4,4c-2.2,0-4-1.8-4-4c0-2.2,1.8-4,4-4C37.8,11.7,39.5,13.5,39.5,15.7"/>
<path fill="#FF5300" d="M45.2,55.9c0,0.2-0.1,0.4-0.3,0.6c-0.2,0.2-0.4,0.2-0.6,0.2L43,56.7c-1.6,0-1.9,0.7-1.9,1.6v13.2
	c0,2.1-0.6,3.7-1.8,4.9c1.2,1.2,1.8,2.8,1.8,4.9v13.7c0,1,1.8,1.2,3.3,1.2c0.5,0,0.8,0.4,0.8,0.8v7.7c0,0.5-0.4,0.8-0.8,0.8h-3.5
	c-6.7,0-10.3-3.4-10.3-9.8V82.8c0-0.8-0.1-1.8-0.6-1.8h-2.9c-0.5,0-0.8-0.4-0.8-0.8v-7.7c0-0.5,0.4-0.8,0.8-0.8H30
	c0.5,0,0.6-1.1,0.6-1.8V57.2c0-6.4,3.6-9.8,10.3-9.8h3.5c0.5,0,0.8,0.4,0.8,0.8V55.9z"/>
<path fill="#FF5300" d="M70.7,82.7c0,4.3-1.1,7.5-3.3,9.6c-2.2,2.1-5,3.2-8.5,3.2c-4.3,0-8.1-1.7-11.3-5l4.2-5.8
	c2.2,2.3,4.4,3.5,6.8,3.5c1.1,0,2.1-0.4,2.9-1.3c0.8-0.9,1.2-2.2,1.2-3.9V66.2H52v-6.9h18.7V82.7z"/>
<path fill="#FF5300" d="M101.6,92.6c-2.4,2-5.6,3-9.5,3c-5.7,0-10.8-2.1-15.4-6.3l4.8-5.9c3.9,3.4,7.5,5.1,10.8,5.1
	c1.5,0,2.6-0.3,3.5-1C96.6,87,97,86.1,97,85c0-1.1-0.4-1.9-1.3-2.6c-0.9-0.6-2.7-1.3-5.3-1.9c-4.2-1-7.2-2.3-9.2-3.9
	c-1.9-1.6-2.9-4.1-2.9-7.5c0-3.4,1.2-6,3.7-7.9c2.5-1.9,5.5-2.8,9.2-2.8c2.4,0,4.8,0.4,7.2,1.2c2.4,0.8,4.5,2,6.3,3.5l-4.1,5.9
	c-3.1-2.4-6.3-3.5-9.7-3.5c-1.3,0-2.4,0.3-3.2,1c-0.8,0.6-1.2,1.5-1.2,2.5c0,1,0.5,1.9,1.4,2.5c0.9,0.6,3.1,1.3,6.5,2.2
	c3.4,0.8,6.1,2.1,7.9,3.8c1.9,1.7,2.8,4.1,2.8,7.4C105.3,88,104,90.6,101.6,92.6"/>
<path fill="#FF5300" d="M128.3,80.4c0,0.5-0.4,0.8-0.8,0.8h-2.9c-0.5,0-0.6,1.1-0.6,1.8v12.7c0,6.4-3.6,9.8-10.3,9.8h-3.5
	c-0.5,0-0.8-0.4-0.8-0.8V97c0-0.2,0.1-0.4,0.3-0.6c0.2-0.2,0.4-0.3,0.6-0.2l1.3,0.1c1.6,0,1.9-0.7,1.9-1.6V81.5
	c0-2.1,0.6-3.7,1.8-4.9c-1.2-1.2-1.8-2.8-1.8-4.9V58c0-1-1.8-1.2-3.3-1.2c-0.5,0-0.8-0.4-0.8-0.8v-7.7c0-0.5,0.4-0.8,0.8-0.8h3.5
	c6.7,0,10.3,3.4,10.3,9.8v12.9c0,0.8,0.1,1.8,0.6,1.8h2.9c0.5,0,0.8,0.4,0.8,0.8V80.4z"/>
</svg>
