<?xml version="1.0" encoding="utf-8"?>
<!-- Generator: Adobe Illustrator 18.1.1, SVG Export Plug-In . SVG Version: 6.00 Build 0)  -->
<svg version="1.1" id="Layer_1" xmlns="http://www.w3.org/2000/svg" xmlns:xlink="http://www.w3.org/1999/xlink" x="0px" y="0px"
	 viewBox="0 0 158.2 131.7" enable-background="new 0 0 158.2 131.7" xml:space="preserve">
<path fill="#00BFD5" d="M154.5,0H3.7C1.6,0,0,1.6,0,3.7v124.4c0,2,1.6,3.7,3.7,3.7h150.9c2,0,3.7-1.6,3.7-3.7V3.7
	C158.2,1.6,156.6,0,154.5,0z M150.9,7.3v18.1H7.3V7.3H150.9z M7.3,124.4V32.8h143.5v91.6H7.3z"/>
<path fill="#00BFD5" d="M19.5,15.7c0,2.2-1.8,4-4,4c-2.2,0-4-1.8-4-4c0-2.2,1.8-4,4-4C17.8,11.7,19.5,13.5,19.5,15.7"/>
<path fill="#00BFD5" d="M29.6,15.7c0,2.2-1.8,4-4,4c-2.2,0-4-1.8-4-4c0-2.2,1.8-4,4-4C27.8,11.7,29.6,13.5,29.6,15.7"/>
<path fill="#00BFD5" d="M39.5,15.7c0,2.2-1.8,4-4,4c-2.2,0-4-1.8-4-4c0-2.2,1.8-4,4-4C37.8,11.7,39.5,13.5,39.5,15.7"/>
<path fill="#00BFD5" d="M114.6,56.2H15.6c-2,0-3.7-1.6-3.7-3.7s1.6-3.7,3.7-3.7h99.1c2,0,3.7,1.6,3.7,3.7S116.7,56.2,114.6,56.2z"/>
<path fill="#00BFD5" d="M89.7,69H15.6c-2,0-3.7-1.6-3.7-3.7c0-2,1.6-3.7,3.7-3.7h74.1c2,0,3.7,1.6,3.7,3.7
	C93.4,67.3,91.7,69,89.7,69z"/>
<path fill="#00BFD5" d="M77.8,107.8H15.6c-2,0-3.7-1.6-3.7-3.7s1.6-3.7,3.7-3.7h62.2c2,0,3.7,1.6,3.7,3.7S79.8,107.8,77.8,107.8z"/>
<path fill="#00BFD5" d="M103.2,82H15.6c-2,0-3.7-1.6-3.7-3.7s1.6-3.7,3.7-3.7h87.6c2,0,3.7,1.6,3.7,3.7S105.2,82,103.2,82z"/>
<path fill="#00BFD5" d="M125,95H15.6c-2,0-3.7-1.6-3.7-3.7s1.6-3.7,3.7-3.7H125c2,0,3.7,1.6,3.7,3.7S127,95,125,95z"/>
</svg>
