<?xml version="1.0"?><svg width="2271.4375" height="1665.7122" xmlns="http://www.w3.org/2000/svg" xmlns:xlink="http://www.w3.org/1999/xlink">
 <defs>
  <clipPath id="clipPath4234" clipPathUnits="userSpaceOnUse">
   <path fill="#9cf000" stroke-width="3" stroke-linecap="round" stroke-linejoin="round" stroke-miterlimit="4" stroke-dashoffset="0" id="path4236" d="m-701.794067,85.707787c-11.65564,0 -21.0625,5.752144 -21.0625,12.875l0,830.031227c73.681519,-9.907227 153.852417,-15.0625 237.156128,-15.0625c343.817139,0 484.305725,44.117554 822.843781,235.71875c342.857147,194.045776 775.268036,461.424072 -891.406281,464.28125c-60.104736,0.103271 -116.483887,-9.398071 -168.593628,-25.937378l0,150.96875c0,7.122803 9.40686,12.843994 21.0625,12.843628l2229.343628,0c11.655518,0 21.03125,-5.720825 21.03125,-12.843628l0,-640.000122l0,-67.40625l0,-932.593727c0,-7.122856 -9.375732,-12.875 -21.03125,-12.875l-2229.343628,0z"/>
  </clipPath>
  <clipPath id="clipPath4253" clipPathUnits="userSpaceOnUse">
   <path fill="url(#linearGradient4257)" stroke-width="3" stroke-linecap="round" stroke-linejoin="round" stroke-miterlimit="4" stroke-dashoffset="0" id="path4255" d="m272.491547,62.850647c-11.655579,0 -21.0625,5.752136 -21.0625,12.874992l0,830.031197l0,169.96875l0,640c0,7.122925 9.406952,12.843994 21.0625,12.84375l2229.343903,0c11.655273,0 21.03125,-5.720947 21.03125,-12.84375l0,-640l0,-67.40625l0,-932.593697c0,-7.122856 -9.375977,-12.874992 -21.03125,-12.874992l-2229.343903,0z"/>
  </clipPath>
  <filter id="filter4635" height="2.260247" y="-0.630123" width="1.382322" x="-0.191161">
   <feGaussianBlur id="feGaussianBlur4637" stdDeviation="40.507936"/>
  </filter>
  <filter id="filter4962" height="1.528696" y="-0.264348" width="1.496326" x="-0.248163">
   <feGaussianBlur id="feGaussianBlur4964" stdDeviation="57.904762"/>
  </filter>
  <filter id="filter5183" height="1.595822" y="-0.297911" width="1.260664" x="-0.130332">
   <feGaussianBlur id="feGaussianBlur5185" stdDeviation="24.825904"/>
  </filter>
  <clipPath id="clipPath5381" clipPathUnits="userSpaceOnUse">
   <path opacity="0.893333" fill="#fdfdfd" stroke-width="5" stroke-linecap="round" stroke-linejoin="round" stroke-miterlimit="4" stroke-dashoffset="0" id="path5383" d="m798.213501,156.399796c-48.512512,0 -90.277039,11.929932 -108.884583,29.029007c-4.26886,-0.29483 -8.609497,-0.457611 -13.019836,-0.457581c-57.891602,0 -104.884521,26.515869 -104.884521,59.185257c0,28.591507 35.995605,52.464554 83.786011,57.979874c14.848328,30.919434 81.280579,54.263428 160.924805,54.263428c90.548401,0 164.042603,-30.168213 164.042603,-67.34375l-0.117676,-1.082581c29.333679,-9.232056 48.520508,-24.501526 48.520508,-41.774582l-0.421509,-4.386139c-5.100586,-26.509354 -53.967407,-46.620636 -113.325806,-46.64064c-11.480103,-22.433395 -59.405518,-38.772324 -116.619995,-38.772293z"/>
  </clipPath>
  <filter id="filter5445" height="1.437617" y="-0.218809" width="1.191452" x="-0.095726">
   <feGaussianBlur id="feGaussianBlur5447" stdDeviation="18.234042"/>
  </filter>
  <clipPath id="clipPath5495" clipPathUnits="userSpaceOnUse">
   <path opacity="0.893333" fill="#fdfdfd" stroke-width="5" stroke-linecap="round" stroke-linejoin="round" stroke-miterlimit="4" stroke-dashoffset="0" d="m1832.499146,64.971237c-48.512451,0 -90.276978,11.929924 -108.884521,29.028992c-4.268921,-0.294823 -8.609497,-0.457611 -13.019897,-0.457573c-57.891602,0 -104.884399,26.515862 -104.884399,59.185249c0,28.591507 35.995483,52.464569 83.786011,57.979889c14.848267,30.919434 81.280518,54.263397 160.924805,54.263428c90.54834,0 164.042603,-30.168243 164.042603,-67.343781l-0.117798,-1.082565c29.33374,-9.23204 48.520752,-24.501541 48.520752,-41.774582l-0.421875,-4.386139c-5.100586,-26.509354 -53.967285,-46.620636 -113.325684,-46.640633c-11.480103,-22.433403 -59.405396,-38.772331 -116.619995,-38.772285z" id="path5497"/>
  </clipPath>
  <filter id="filter5575" height="1.438104" y="-0.219052" width="1.191665" x="-0.095832">
   <feGaussianBlur id="feGaussianBlur5577" stdDeviation="18.254341"/>
  </filter>
  <clipPath id="clipPath5671" clipPathUnits="userSpaceOnUse">
   <rect transform="translate(731.438, 201.181)" fill="url(#linearGradient5675)" stroke-width="3" stroke-linecap="round" stroke-linejoin="round" stroke-miterlimit="4" stroke-dashoffset="0" ry="21.597332" rx="35.341087" y="-243.84096" x="-791.15668" height="1722.9872" width="3815.5286" id="rect5673"/>
  </clipPath>
  <clipPath id="clipPath5677" clipPathUnits="userSpaceOnUse">
   <rect transform="translate(731.438, 201.181)" fill="url(#linearGradient5681)" stroke-width="3" stroke-linecap="round" stroke-linejoin="round" stroke-miterlimit="4" stroke-dashoffset="0" id="rect5679" width="3599.5803" height="1625.4709" x="-782.60162" y="-231.60446" rx="33.340881" ry="20.374983"/>
  </clipPath>
  <linearGradient id="linearGradient4641">
   <stop stop-color="#fcaf3e" id="stop4643" offset="0"/>
   <stop stop-color="#ffce86" id="stop4645" offset="1"/>
  </linearGradient>
  <linearGradient id="linearGradient4368">
   <stop stop-color="#69d007" offset="0" id="stop4370"/>
   <stop stop-color="#4e9a06" stop-opacity="0" offset="1" id="stop4372"/>
  </linearGradient>
  <linearGradient id="linearGradient4336">
   <stop stop-color="#458905" id="stop4338" offset="0"/>
   <stop stop-color="#4e9a06" stop-opacity="0" id="stop4340" offset="1"/>
  </linearGradient>
  <linearGradient id="linearGradient4328">
   <stop stop-color="#8f5902" id="stop4330" offset="0"/>
   <stop stop-color="#724701" id="stop4332" offset="1"/>
  </linearGradient>
  <linearGradient id="linearGradient4238">
   <stop stop-color="#55a800" id="stop4240" offset="0"/>
   <stop stop-color="#74e400" id="stop4242" offset="1"/>
  </linearGradient>
  <linearGradient id="linearGradient4191">
   <stop stop-color="#007900" id="stop4193" offset="0"/>
   <stop stop-color="#008400" stop-opacity="0" id="stop4195" offset="1"/>
  </linearGradient>
  <linearGradient id="linearGradient4180">
   <stop stop-color="#00a400" id="stop4182" offset="0"/>
   <stop stop-color="#00a400" stop-opacity="0" id="stop4184" offset="1"/>
  </linearGradient>
  <linearGradient id="linearGradient4103">
   <stop stop-color="#00acf4" id="stop4105" offset="0"/>
   <stop stop-color="#a6e5ff" id="stop4107" offset="1"/>
  </linearGradient>
  <linearGradient y2="1.000095" x2="0.474214" y1="-0.189419" x1="0.474214" id="linearGradient4109" xlink:href="#linearGradient4103"/>
  <linearGradient y2="0.524213" x2="0.490848" y1="-0.488396" x1="0.492076" id="linearGradient4200" xlink:href="#linearGradient4191"/>
  <linearGradient y2="978.1759" x2="345.71426" y1="-241.92688" x1="345.71426" gradientTransform="matrix(1, 0, 0, 1, 982.867, 110.495)" gradientUnits="userSpaceOnUse" id="linearGradient4257" xlink:href="#linearGradient4103"/>
  <linearGradient y2="0.581634" x2="0.357288" y1="-0.120596" x1="0.357288" id="linearGradient4261" xlink:href="#linearGradient4180"/>
  <linearGradient y2="1.425902" x2="0.510673" y1="-0.070132" x1="0.5" id="linearGradient4263" xlink:href="#linearGradient4238"/>
  <linearGradient y2="0.534215" x2="0.655669" y1="0.904874" x1="0.762444" id="linearGradient4382" xlink:href="#linearGradient4336"/>
  <linearGradient y2="0.500003" x2="0.552102" y1="0.000003" x1="0.439151" id="linearGradient4384" xlink:href="#linearGradient4368"/>
  <linearGradient y2="0.815607" x2="0.683022" y1="0.000298" x1="0.109723" id="linearGradient4386" xlink:href="#linearGradient4368"/>
  <linearGradient y2="0.180444" x2="0.659074" y1="0.751565" x1="0.037882" id="linearGradient4388" xlink:href="#linearGradient4336"/>
  <linearGradient y2="0.499999" x2="0.999994" y1="0.499999" x1="0.499999" id="linearGradient4390" xlink:href="#linearGradient4328"/>
  <radialGradient gradientUnits="userSpaceOnUse" gradientTransform="matrix(0.49249, 0.25062, -0.196841, 0.386813, 102.885, 191.689)" r="284.19949" fy="-27.637817" fx="-640" cy="-27.637817" cx="-640" id="radialGradient4647" xlink:href="#linearGradient4641"/>
  <linearGradient y2="978.1759" x2="345.71426" y1="-241.92688" x1="345.71426" gradientTransform="matrix(1.67979, 0, 0, 1.67979, 437.492, -163.819)" gradientUnits="userSpaceOnUse" id="linearGradient5675" xlink:href="#linearGradient4103"/>
  <linearGradient y2="978.1759" x2="345.71426" y1="-241.92688" x1="345.71426" gradientTransform="matrix(1.58472, 0, 0, 1.58472, 376.509, -156.112)" gradientUnits="userSpaceOnUse" id="linearGradient5681" xlink:href="#linearGradient4103"/>
 </defs>
 <metadata id="metadata7">image/svg+xmlSummer LandscapeCarlos AsmatsummergreenlandscapetreecloudsA simple summer landscape featuring green grass, a blue sky and white clouds.</metadata>
 <g>
  <title>Layer 1</title>
  <g display="inline" id="layer2">
   <rect fill="url(#linearGradient4109)" stroke-width="3" stroke-linecap="round" stroke-linejoin="round" stroke-miterlimit="4" stroke-dashoffset="0" ry="12.857142" rx="21.03896" y="0" x="0.009398" height="1025.7142" width="2271.4285" id="rect2160"/>
   <path fill="url(#linearGradient4263)" stroke-width="3" stroke-linecap="round" stroke-linejoin="round" stroke-miterlimit="4" stroke-dashoffset="0" id="path4202" d="m1211.437988,804.96228c-215.17157,0 -379.221558,34.240723 -506.1875,86.40625c-139.692749,-48.926025 -270.224243,-63.53125 -468.09375,-63.53125c-83.302917,0 -163.475647,5.155029 -237.15625,15.0625l0,809.96875c0,7.122925 9.406921,12.84375 21.0625,12.84375l2229.34375,0c11.655518,0 21.03125,-5.720947 21.03125,-12.84375l0,-707.40625c-167.743164,0.928467 -334.178711,3.173828 -499.125,6.71875c-168.047607,-63.883789 -304.033447,-147.21875 -560.875,-147.21875z"/>
   <path fill="url(#linearGradient4200)" stroke-width="3" stroke-linecap="round" stroke-linejoin="round" stroke-miterlimit="4" stroke-dashoffset="0" clip-path="url(#clipPath4234)" id="path4113" d="m1960.009277,1006.40033c273.655762,51.378723 3923.446289,427.815979 -745.714355,375.714294c-4661.07959,-52.101807 -787.936401,-313.383789 -700,-381.42865c140,-108.331421 353.325745,-195.714233 697.142822,-195.714233c343.817139,0 471.074219,149.328613 748.571533,201.428589z"/>
   <path fill="url(#linearGradient4261)" stroke-width="3" stroke-linecap="round" stroke-linejoin="round" stroke-miterlimit="4" stroke-dashoffset="0" clip-path="url(#clipPath4253)" id="path4111" d="m1060.009033,1063.543213c342.857178,194.045776 775.245605,461.428711 -891.428635,464.285889c-343.816589,0.590332 -565.515335,-312.666016 -565.714249,-464.285889c-0.19043,-148.015198 290.468582,-235.714294 634.28569,-235.714294c343.817093,0 484.319046,44.113037 822.857193,235.714294z"/>
  </g>
  <g display="inline" id="layer1">
   <path opacity="0.031111" fill="#000000" stroke-width="5" stroke-linecap="round" stroke-linejoin="round" stroke-miterlimit="4" stroke-dashoffset="0" filter="url(#filter5183)" id="path5189" d="m813.936035,1047.828735c67.916992,0 126.386902,11.929932 152.437256,29.029053c5.976379,-0.2948 12.053223,-0.457642 18.227661,-0.457642c81.047607,0 146.83728,26.515869 146.83728,59.185303c0,28.591553 -50.393555,52.4646 -117.299622,57.97998c-20.787476,30.919434 -113.791992,54.263306 -225.293091,54.263428c-126.766846,0 -229.65802,-30.168335 -229.65802,-67.343872l0.164795,-1.08252c-41.066895,-9.232056 -67.928345,-24.501587 -67.928345,-41.774658l0.59024,-4.386108c7.140778,-26.509277 75.553802,-46.620605 158.654938,-46.640625c16.072021,-22.43335 83.167175,-38.772339 163.266907,-38.772339z"/>
   <path opacity="0.288889" fill="#f57900" stroke-width="8.398963" stroke-linecap="round" stroke-linejoin="round" stroke-miterlimit="4" stroke-dashoffset="0" filter="url(#filter4962)" clip-path="url(#clipPath5677)" id="path4649" d="m266.681671,128.708252a176.687286,165.869705 0 1 1 -0.65329,-14.250702"/>
   <g transform="matrix(0.545965, 0, 0, 0.545965, 940.019, 86.9666)" id="g4374">
    <path fill="#4e9a06" stroke-width="3" stroke-linecap="round" stroke-linejoin="round" stroke-miterlimit="4" stroke-dashoffset="0" d="m-972.471436,753.89325c-94.875244,0 -178.407715,43.14325 -226.9375,108.40625c-152.312256,26.53241 -267.34375,145.771362 -267.34375,288.750061c0,76.827881 33.231445,146.791748 87.59375,199.21875c-1.229736,10.57959 -1.875,21.337158 -1.875,32.21875c0,164.022949 143.360107,297.125 320,297.125c87.112549,0 166.122803,-32.382813 223.84375,-84.875c39.230469,17.85498 82.358643,27.75 127.59375,27.75c181.37146,0 328.5625,-158.746826 328.5625,-354.3125c0,-195.565796 -147.19104,-354.281311 -328.5625,-354.281311c-2.30249,0 -4.61499,0.042847 -6.90625,0.09375c-37.267334,-93.218933 -137.83252,-160.09375 -255.96875,-160.09375z" id="path4314"/>
    <path fill="url(#linearGradient4382)" stroke-width="3" stroke-linecap="round" stroke-linejoin="round" stroke-miterlimit="4" stroke-dashoffset="0" id="path4305" d="m-381.0354,1268.1875a328.571442,354.285706 0 1 1 -657.142944,0a328.571442,354.285706 0 1 1 657.142944,0z"/>
    <path fill="url(#linearGradient4384)" stroke-width="3" stroke-linecap="round" stroke-linejoin="round" stroke-miterlimit="4" stroke-dashoffset="0" id="path4301" d="m-701.0354,993.901733a271.428558,240 0 1 1 -542.857178,0a271.428558,240 0 1 1 542.857178,0z"/>
    <path fill="url(#linearGradient4386)" stroke-width="3" stroke-linecap="round" stroke-linejoin="round" stroke-miterlimit="4" stroke-dashoffset="0" id="path4303" d="m-803.892639,1151.044556a331.428558,294.285706 0 1 1 -662.856995,0a331.428558,294.285706 0 1 1 662.856995,0z"/>
    <path opacity="0.311111" fill="url(#linearGradient4388)" stroke-width="3" stroke-linecap="round" stroke-linejoin="round" stroke-miterlimit="4" stroke-dashoffset="0" id="path4307" d="m-741.038208,1382.473633a320,297.142853 0 1 1 -640,0a320,297.142853 0 1 1 640,0z"/>
    <path fill="url(#linearGradient4390)" stroke-width="3" stroke-linecap="round" stroke-linejoin="round" stroke-miterlimit="4" stroke-dashoffset="0" d="m-1076.568848,1505.701904c167.685303,278.802246 150.512695,-74.751221 238.395996,44.446777c-61.619385,349.512939 50.507568,480.83252 12.121826,848.52832c-123.23877,44.446777 -110.106689,-46.467041 -335.370605,-24.243896c-7.071289,-341.431396 82.83252,-626.294434 84.852783,-868.731201z" id="rect4323"/>
   </g>
   <path opacity="0.698" fill="#1e9e00" stroke-width="3" stroke-linecap="round" stroke-linejoin="round" stroke-miterlimit="4" stroke-dashoffset="0" d="m177.634888,1302.807373c-4.183411,1.426636 -5.229797,4.703003 -8.74231,9.602417c-4.570862,8.407837 -13.829285,33.589233 -12.787598,37.706787c1.380615,7.417358 13.011841,-34.612305 21.529907,-47.309204zm-78.536438,18.334839c9.92865,30.301758 10.86322,32.571777 18.606567,32.132202c-1.64447,-5.591309 -6.365417,-10.145142 -9.678284,-15.45813c-3.531128,-5.663696 -5.450562,-16.255127 -8.928284,-16.674072zm34.898926,1.104858c-11.30011,19.798462 -12.507019,26.928955 -10.603638,29.158569c3.480225,2.152222 2.72052,-3.465332 10.603638,-29.158569zm21.140747,4.245605c-2.781921,-0.759644 -4.808533,6.097778 -5.914307,11.706665c-2.823303,14.321167 -2.855286,12.254395 -0.952148,13.46814c2.62384,1.67334 2.607361,-12.939453 6.866455,-25.174805zm18.712036,-1.315063c-2.911804,0.139771 -4.426392,5.941162 -6.468201,11.296021c-2.050659,10.210938 -8.019348,16.553711 -3.809814,16.94165c4.185181,0.38562 7.080688,-16.118286 10.278015,-28.237671zm-31.208374,3.927856c-9.182617,16.418457 -11.146606,21.454346 -7.458313,22.132324c2.37793,0.437012 2.565613,-3.574951 5.280457,-10.320435c1.748657,-4.345093 3.928894,-8.152466 2.177856,-11.81189z" id="path7786"/>
   <g id="g7640">
    <path fill="#ad7fa8" stroke-width="3" stroke-linecap="round" stroke-linejoin="round" stroke-miterlimit="4" stroke-dashoffset="0" id="path4271" d="m292.143402,1520.281494a30,16.285662 0 1 1 -59.999969,0a30,16.285662 0 1 1 59.999969,0z"/>
    <path fill="#ce5c00" stroke-width="3" stroke-linecap="round" stroke-linejoin="round" stroke-miterlimit="4" stroke-dashoffset="0" d="m173.094559,1360.859741c-1.718811,1.157715 -5.960007,0.098755 -8.367004,0.481201c-2.486694,0.395142 -5.170776,3.605835 -7.690536,3.136353c-2.439102,-0.454346 -3.998764,-4.030273 -5.780121,-5.154053c-1.840271,-1.160889 -5.577148,-0.928101 -6.378555,-2.485107c-0.775772,-1.507202 2.537735,-3.949219 3.203445,-5.474731c0.687759,-1.57605 -1.082916,-4.229492 0.770813,-5.353638c1.794357,-1.088257 5.754639,0.424072 8.130966,0.003174c2.454971,-0.434692 5.074554,-3.04834 7.613708,-2.661621c2.457825,0.374512 4.078827,3.056274 5.880402,4.134644c1.861176,1.114014 6.874466,1.442627 7.726532,2.959961c0.824799,1.468628 -4.220291,3.188477 -4.728531,4.730713c-0.52507,1.59314 1.394592,4.487061 -0.381119,5.683105z" id="path5606"/>
    <path fill="#f57900" stroke-width="3" stroke-linecap="round" stroke-linejoin="round" stroke-miterlimit="4" stroke-dashoffset="0" d="m124.280334,1397.418701c-2.155663,1.178589 -6.272095,1.393311 -9.333054,1.806519c-3.060951,0.413086 -7.542465,2.394775 -10.55603,1.910767c-3.013474,-0.484131 -5.758881,-2.868652 -7.953545,-4.004517c-2.19458,-1.135864 -6.177498,-2.290039 -7.106354,-3.845215c-0.928856,-1.555176 2.057243,-3.950439 2.785912,-5.485474c0.72876,-1.535034 -0.111176,-4.534668 2.136665,-5.641357c2.247833,-1.106689 7.788368,-0.42627 10.710312,-0.921143c2.922035,-0.494995 5.752823,-2.212402 8.791252,-1.810425c3.038422,0.401978 5.768929,2.818726 7.953453,4.004517c2.184608,1.185669 7.909874,1.769409 8.900276,3.2854c0.990494,1.515991 -2.092163,4.013306 -2.910118,5.526733c-0.817963,1.513428 -1.263023,3.995483 -3.41877,5.174194z" id="path5604"/>
    <path fill="#fcc916" stroke-width="3" stroke-linecap="round" stroke-linejoin="round" stroke-miterlimit="4" stroke-dashoffset="0" id="path5600" d="m208.326431,1368.584229c-1.712112,0.917603 -6.62117,-0.452271 -8.984848,0.037109c-2.363663,0.489258 -7.218307,3.115479 -9.808517,2.811523c-2.590286,-0.303955 -3.896835,-2.716431 -6.073944,-3.47644c-2.177109,-0.76001 -6.03891,-0.656494 -7.051437,-1.791504c-1.012451,-1.135132 1.336258,-3.791016 1.944809,-4.9729c0.608551,-1.181885 -1.158508,-3.34314 0.533539,-4.321655c1.692047,-0.978516 6.828934,-0.780518 9.348083,-1.105957c2.519165,-0.325317 5.351181,-1.883667 7.988052,-1.682129c2.636871,0.20166 5.213013,2.158325 7.403275,2.872681c2.190338,0.714355 6.378525,1.506592 7.542587,2.631592c1.164047,1.125 -1.746017,2.41687 -2.035309,3.642212c-0.289307,1.225464 0.905823,4.437866 -0.80629,5.355469z"/>
    <path fill="#ad7fa8" stroke-width="3" stroke-linecap="round" stroke-linejoin="round" stroke-miterlimit="4" stroke-dashoffset="0" id="path5598" d="m159.669281,1381.262451c-1.922363,1.341309 -7.361588,-0.040283 -10.083466,0.635254c-2.721878,0.675537 -7.453903,3.921021 -10.393387,3.53833c-2.939392,-0.382568 -4.626862,-3.643921 -7.030853,-4.752319c-2.404083,-1.108398 -7.087898,-1.251465 -8.197151,-2.897949c-1.109337,-1.646484 1.762489,-4.970825 2.37616,-6.693726c0.613678,-1.7229 -1.268623,-4.788452 0.639534,-6.184326c1.908157,-1.395874 7.504868,-1.064331 10.337723,-1.591919c2.83287,-0.527588 6.149323,-2.818237 9.118942,-2.527588c2.96962,0.290771 5.546951,3.144165 7.961563,4.212036c2.41452,1.067749 7.325363,2.010864 8.54097,3.64978c1.215622,1.638794 -2.050308,3.741211 -2.439529,5.502808c-0.389221,1.761597 1.091873,5.768311 -0.830505,7.109619z"/>
    <path fill="#ce5c00" stroke-width="3" stroke-linecap="round" stroke-linejoin="round" stroke-miterlimit="4" stroke-dashoffset="0" id="path5594" d="m153.563263,1416.986084c-2.743927,1.703613 -9.514633,0.145386 -13.357193,0.708252c-3.969788,0.581421 -8.2547,5.305664 -12.277275,4.614868c-3.893814,-0.668579 -6.38369,-5.93042 -9.227455,-7.583984c-2.937851,-1.70813 -8.903435,-1.365723 -10.182816,-3.656738c-1.238457,-2.217651 4.051262,-5.810913 5.114029,-8.055664c1.098053,-2.319092 -1.728798,-6.223389 1.230537,-7.877686c2.864525,-1.601196 9.186768,0.624023 12.980377,0.004761c3.919136,-0.639648 8.101082,-4.485474 12.154625,-3.916382c3.923691,0.551025 6.51149,4.49707 9.387543,6.083862c2.971207,1.639282 10.974609,2.122803 12.334747,4.355347c1.316696,2.161133 -6.737335,4.691772 -7.548691,6.960938c-0.838242,2.34436 2.226334,6.602661 -0.608429,8.362427z"/>
    <path fill="#3465a4" stroke-width="3" stroke-linecap="round" stroke-linejoin="round" stroke-miterlimit="4" stroke-dashoffset="0" d="m185.448257,1405.542236c-2.269592,1.341309 -8.691238,-0.040283 -11.904739,0.635254c-3.213516,0.675537 -8.800247,3.921021 -12.27066,3.53833c-3.470306,-0.382568 -5.46257,-3.643921 -8.300781,-4.752319c-2.838303,-1.108398 -8.368103,-1.251465 -9.677719,-2.897949c-1.309708,-1.646484 2.080841,-4.970825 2.805344,-6.693726c0.724518,-1.7229 -1.497757,-4.788452 0.755051,-6.184326c2.252808,-1.395874 8.860397,-1.064331 12.204941,-1.591919c3.344528,-0.527588 7.26001,-2.818237 10.766006,-2.527588c3.505997,0.290771 6.548843,3.144287 9.399582,4.212036c2.850647,1.067749 8.648483,2.010864 10.083664,3.64978c1.435165,1.638794 -2.420654,3.741211 -2.880173,5.502808c-0.459518,1.761597 1.289078,5.768311 -0.980515,7.109619z" id="path5592"/>
    <path fill="#fcaf3e" stroke-width="3" stroke-linecap="round" stroke-linejoin="round" stroke-miterlimit="4" stroke-dashoffset="0" d="m208.640091,1451.822266c-2.717255,1.482788 -10.508286,-0.730835 -14.259613,0.059937c-3.751328,0.790771 -11.455994,5.03479 -15.566849,4.543579c-4.110977,-0.491333 -6.184555,-4.389771 -9.639786,-5.618042c-3.455246,-1.228271 -9.584198,-1.060913 -11.191147,-2.895142c-1.606842,-1.834229 2.120728,-6.126465 3.086548,-8.036255c0.965805,-1.909912 -1.838638,-5.402466 0.846771,-6.983765c2.68541,-1.581421 10.838013,-1.261475 14.836105,-1.787354c3.998077,-0.525757 8.492706,-3.044067 12.677612,-2.718262c4.184906,0.325684 8.273453,3.487793 11.749557,4.64209c3.476212,1.154419 10.123169,2.434814 11.970612,4.252808c1.847443,1.817993 -2.771042,3.90564 -3.230179,5.885986c-0.459152,1.980225 1.437622,7.171631 -1.279633,8.654419z" id="path5590"/>
    <path fill="#cc0000" stroke-width="3" stroke-linecap="round" stroke-linejoin="round" stroke-miterlimit="4" stroke-dashoffset="0" d="m257.013641,1475.03418c-3.256638,2.093384 -11.292099,0.178589 -15.852463,0.870239c-4.711334,0.714478 -9.796387,6.519897 -14.570663,5.671021c-4.621033,-0.821655 -7.576019,-7.287598 -10.951141,-9.319458c-3.486572,-2.099121 -10.566528,-1.678223 -12.0849,-4.493652c-1.469788,-2.72522 4.808044,-7.140747 6.069336,-9.899292c1.303024,-2.849731 -2.051743,-7.647583 1.460403,-9.680298c3.399612,-1.967773 10.902924,0.766724 15.405182,0.005737c4.65123,-0.786011 9.614365,-5.511963 14.42511,-4.8125c4.656631,0.677002 7.727829,5.526123 11.141129,7.476074c3.526093,2.014282 13.024536,2.608521 14.639038,5.352051c1.562347,2.65564 -7.996185,5.765381 -8.958954,8.553955c-0.994965,2.880737 2.642212,8.113525 -0.722076,10.276123z" id="path5586"/>
    <path fill="#fcaf3e" stroke-width="3" stroke-linecap="round" stroke-linejoin="round" stroke-miterlimit="4" stroke-dashoffset="0" id="path5582" d="m210.681625,1511.703125c-3.167831,1.746582 -12.250778,-0.860962 -16.624161,0.070557c-4.373367,0.931396 -13.355774,5.93042 -18.1483,5.351807c-4.792526,-0.578613 -7.210083,-5.170654 -11.238144,-6.617432c-4.028183,-1.446655 -11.173447,-1.249634 -13.046875,-3.410156c-1.873276,-2.160522 2.472397,-7.216187 3.598373,-9.46582c1.125961,-2.249634 -2.143524,-6.363647 0.987183,-8.226196c3.130707,-1.862671 12.63504,-1.48584 17.296097,-2.105225c4.661057,-0.619385 9.901123,-3.585571 14.779831,-3.201904c4.87886,0.383667 9.645508,4.108276 13.698029,5.468018c4.052505,1.359741 11.801819,2.86792 13.955597,5.009277c2.153793,2.141357 -3.230667,4.600464 -3.765961,6.932983c-0.535278,2.332642 1.676147,8.44751 -1.491669,10.194092z"/>
    <path fill="#ad7fa8" stroke-width="3" stroke-linecap="round" stroke-linejoin="round" stroke-miterlimit="4" stroke-dashoffset="0" id="path5576" d="m290.533112,1529.560181c-2.999664,1.884277 -11.486877,-0.056641 -15.73407,0.892456c-4.247223,0.948975 -11.631226,5.508179 -16.217834,4.970581c-4.586761,-0.537476 -7.219894,-5.119019 -10.971085,-6.676025c-3.75119,-1.557129 -11.059814,-1.758057 -12.790817,-4.071045c-1.731018,-2.312866 2.750183,-6.983032 3.707764,-9.403198c0.957565,-2.420288 -1.979431,-6.726929 0.998062,-8.687744c2.977341,-1.960938 11.710434,-1.495117 16.130829,-2.236328c4.420395,-0.741211 9.595383,-3.959106 14.229202,-3.550659c4.633911,0.408325 8.655579,4.41687 12.423187,5.91687c3.767761,1.5 11.430511,2.824951 13.327332,5.127197c1.896973,2.302246 -3.19931,5.255615 -3.806641,7.730347c-0.60733,2.474731 1.703766,8.103271 -1.295929,9.987549z"/>
    <path fill="#f57900" stroke-width="3" stroke-linecap="round" stroke-linejoin="round" stroke-miterlimit="4" stroke-dashoffset="0" d="m252.55307,1535.279175c-3.671402,2.065186 -10.682373,2.441284 -15.89563,3.165161c-5.213181,0.723999 -12.845932,4.196045 -17.978394,3.3479c-5.132462,-0.848145 -9.808228,-5.026123 -13.54599,-7.016235c-3.737762,-1.990112 -10.521255,-4.012329 -12.103241,-6.737183c-1.58197,-2.724854 3.503784,-6.921387 4.744904,-9.61084c1.241028,-2.689453 -0.189346,-7.94519 3.638885,-9.884155c3.8284,-1.938965 13.264755,-0.746704 18.241409,-1.613892c4.976578,-0.867188 9.797745,-3.876343 14.972702,-3.172119c5.174957,0.704346 9.825348,4.938843 13.54599,7.016235c3.720642,2.077393 13.471527,3.100342 15.158478,5.75647c1.68689,2.656128 -3.563324,7.031372 -4.956451,9.683105c-1.393097,2.651611 -2.151184,7.000488 -5.822662,9.065552z" id="path5574"/>
    <path fill="#fcc916" stroke-width="3" stroke-linecap="round" stroke-linejoin="round" stroke-miterlimit="4" stroke-dashoffset="0" d="m233.925842,1421.934937c-2.682358,1.445068 -10.3741,-0.712402 -14.077576,0.05835c-3.703476,0.77063 -11.309967,4.906738 -15.368271,4.427979c-4.058533,-0.47876 -6.105774,-4.278076 -9.516815,-5.475098c-3.41127,-1.197021 -9.461807,-1.033936 -11.048264,-2.821655c-1.586456,-1.787598 2.093445,-5.970581 3.04718,-7.831909c0.953491,-1.861328 -1.815308,-5.265259 0.835846,-6.806396c2.651154,-1.541138 10.699631,-1.229248 14.646713,-1.741821c3.947098,-0.512451 8.384491,-2.966675 12.5159,-2.64917c4.131638,0.317383 8.168015,3.39917 11.599777,4.52417c3.431763,1.125 9.994034,2.372925 11.817917,4.144653c1.823868,1.771729 -2.735703,3.806396 -3.189102,5.736328c-0.453171,1.929932 1.419281,6.98938 -1.263306,8.43457z" id="path5578"/>
    <path fill="#ce5c00" stroke-width="3" stroke-linecap="round" stroke-linejoin="round" stroke-miterlimit="4" stroke-dashoffset="0" id="path5580" d="m99.510445,1356.446411c-2.194847,1.196777 -7.610352,0.102173 -10.68396,0.497559c-3.175163,0.408447 -6.602486,3.727173 -9.820076,3.241943c-3.114502,-0.469727 -5.106049,-4.166138 -7.380661,-5.327637c-2.349861,-1.200073 -7.121391,-0.959473 -8.144714,-2.568848c-0.990589,-1.557983 3.240341,-4.082153 4.0905,-5.659058c0.878189,-1.62915 -1.38279,-4.371948 0.984161,-5.533936c2.291214,-1.124878 7.348114,0.438232 10.382561,0.003296c3.134659,-0.449463 6.479721,-3.151001 9.721977,-2.751221c3.138405,0.387085 5.208176,3.15918 7.508606,4.273804c2.376648,1.151611 8.778137,1.491211 9.86615,3.05957c1.053177,1.518188 -5.388916,3.296021 -6.037979,4.890015c-0.67038,1.646851 1.780754,4.638306 -0.486565,5.874512z"/>
    <path fill="#ce5c00" stroke-width="3" stroke-linecap="round" stroke-linejoin="round" stroke-miterlimit="4" stroke-dashoffset="0" d="m292.887878,1492.325928c-3.439697,1.820435 -11.926788,0.155273 -16.7435,0.756836c-4.976166,0.621338 -10.34729,5.6698 -15.389709,4.931763c-4.880951,-0.7146 -8.002029,-6.337646 -11.566727,-8.104614c-3.682632,-1.825562 -11.160568,-1.459473 -12.764282,-3.907837c-1.552429,-2.369873 5.078308,-6.209839 6.410492,-8.608765c1.376343,-2.478271 -2.167068,-6.650635 1.542496,-8.418457c3.590714,-1.711182 11.515732,0.66687 16.271057,0.005127c4.912689,-0.683594 10.154816,-4.793457 15.235992,-4.185181c4.918396,0.588745 8.162231,4.805786 11.767395,6.501465c3.724365,1.751709 13.756744,2.268433 15.461975,4.654297c1.650208,2.309448 -8.445648,5.013916 -9.462524,7.438843c-1.050903,2.505249 2.790741,7.055908 -0.762665,8.936523z" id="path5584"/>
    <path fill="#f57900" stroke-width="3" stroke-linecap="round" stroke-linejoin="round" stroke-miterlimit="4" stroke-dashoffset="0" id="path5588" d="m191.160736,1479.002441c-2.634094,1.742554 -9.133759,0.148682 -12.822525,0.724365c-3.810867,0.594727 -7.924255,5.427124 -11.785812,4.720581c-3.737961,-0.68396 -6.128159,-6.066162 -8.858093,-7.757568c-2.820251,-1.747192 -8.547043,-1.396851 -9.775208,-3.740356c-1.188873,-2.268433 3.889099,-5.94397 4.909317,-8.240112c1.054092,-2.37207 -1.659592,-6.365723 1.181274,-8.057861c2.749863,-1.637939 8.819046,0.638306 12.4608,0.004883c3.762253,-0.654419 7.776794,-4.588135 11.668076,-4.005981c3.766632,0.563477 6.250839,4.599976 9.011765,6.223022c2.85228,1.676758 10.535309,2.171387 11.841003,4.454956c1.263992,2.210571 -6.467651,4.799194 -7.246521,7.120361c-0.804688,2.397827 2.137222,6.753662 -0.584076,8.553711z"/>
    <path fill="#ad7fa8" stroke-width="3" stroke-linecap="round" stroke-linejoin="round" stroke-miterlimit="4" stroke-dashoffset="0" d="m132.921982,1445.042725c-2.478088,1.729126 -9.489944,-0.052002 -12.998802,0.81897c-3.508858,0.87085 -9.609062,5.054688 -13.398445,4.561401c-3.789375,-0.493286 -5.964638,-4.697632 -9.063812,-6.126465c-3.09906,-1.428833 -9.137115,-1.613281 -10.567192,-3.73584c-1.429977,-2.122437 2.272079,-6.408081 3.063179,-8.62915c0.791107,-2.221069 -1.635307,-6.172974 0.824554,-7.972534c2.459755,-1.799438 9.674644,-1.371948 13.326576,-2.052124c3.651932,-0.680176 7.927277,-3.633179 11.755508,-3.258423c3.828346,0.374756 7.150856,4.053345 10.263603,5.42981c3.11264,1.376587 9.443359,2.592407 11.01033,4.705078c1.5672,2.112793 -2.643112,4.822998 -3.144867,7.093994c-0.501755,2.270996 1.407547,7.436157 -1.070633,9.165283z" id="path5596"/>
    <path fill="#f57900" stroke-width="3" stroke-linecap="round" stroke-linejoin="round" stroke-miterlimit="4" stroke-dashoffset="0" id="path5602" d="m144.994476,1355.988647c-2.155655,1.178589 -6.272095,1.393311 -9.333054,1.806519c-3.060944,0.413086 -7.542465,2.394775 -10.55603,1.910767c-3.013466,-0.484131 -5.758881,-2.868652 -7.953545,-4.004517c-2.19458,-1.135864 -6.177498,-2.290039 -7.106354,-3.845215c-0.928856,-1.555176 2.057243,-3.950439 2.785912,-5.485474c0.728767,-1.535034 -0.111168,-4.534668 2.136665,-5.641357c2.247833,-1.106689 7.788368,-0.42627 10.710312,-0.921143c2.922035,-0.494995 5.752831,-2.212402 8.791252,-1.810425c3.038422,0.401978 5.768936,2.818726 7.953445,4.004517c2.184616,1.185669 7.909882,1.769409 8.900284,3.2854c0.990494,1.515991 -2.092148,4.013306 -2.91011,5.526733c-0.817963,1.513428 -1.263031,3.995483 -3.418777,5.174194z"/>
    <path fill="#fcaf3e" stroke-width="3" stroke-linecap="round" stroke-linejoin="round" stroke-miterlimit="4" stroke-dashoffset="0" id="path7636" d="m230.180588,1392.719482c-1.98201,1.322876 -7.664978,-0.6521 -10.401154,0.053345c-2.736282,0.705566 -8.356262,4.491943 -11.354767,4.053711c-2.99852,-0.438232 -4.511108,-3.916504 -7.031403,-5.012329c-2.520218,-1.095703 -6.990768,-0.946411 -8.162903,-2.583008c-1.172134,-1.636475 1.546906,-5.46582 2.251373,-7.1698c0.704483,-1.703979 -1.341217,-4.819946 0.617661,-6.230835c1.958771,-1.410767 7.905304,-1.125366 10.821655,-1.594604c2.91626,-0.469116 6.194611,-2.71582 9.247223,-2.425171c3.052444,0.290649 6.034683,3.111694 8.570297,4.141602c2.535614,1.030029 7.383987,2.172363 8.731537,3.794312c1.347549,1.621948 -2.021317,3.484497 -2.356232,5.251343c-0.3349,1.766724 1.048706,6.398438 -0.933289,7.721436z"/>
   </g>
   <path opacity="0.364445" fill="#323232" stroke-width="3" stroke-linecap="round" stroke-linejoin="round" stroke-miterlimit="4" stroke-dashoffset="0" filter="url(#filter4635)" d="m617.152222,1393.543213a254.285706,77.14286 0 1 1 -508.571411,0a254.285706,77.14286 0 1 1 508.571411,0z" id="path4397"/>
   <path fill="url(#radialGradient4647)" stroke="#fcaf3e" stroke-width="8.398963" stroke-linecap="round" stroke-linejoin="round" stroke-miterlimit="4" stroke-dashoffset="0" clip-path="url(#clipPath5671)" d="m256.681702,128.708282a166.687363,156.48201 0 1 1 -333.374718,0a166.687363,156.48201 0 1 1 333.374718,0z" id="path4639"/>
   <path fill="#fdfdfd" stroke-width="5" stroke-linecap="round" stroke-linejoin="round" stroke-miterlimit="4" stroke-dashoffset="0" filter="url(#filter5575)" clip-path="url(#clipPath5495)" id="path4984" d="m1832.499146,64.971237c-48.512451,0 -90.276978,11.929924 -108.884521,29.028992c-4.268921,-0.294823 -8.609497,-0.457611 -13.019897,-0.457573c-57.891602,0 -104.884399,26.515862 -104.884399,59.185249c0,28.591507 35.995483,52.464569 83.786011,57.979889c14.848267,30.919434 81.280518,54.263397 160.924805,54.263428c90.54834,0 164.042603,-30.168243 164.042603,-67.343781l-0.117798,-1.082565c29.33374,-9.23204 48.520752,-24.501541 48.520752,-41.774582l-0.421875,-4.386139c-5.100586,-26.509354 -53.967285,-46.620636 -113.325684,-46.640633c-11.480103,-22.433403 -59.405396,-38.772331 -116.619995,-38.772285z"/>
   <path fill="#fdfdfd" stroke-width="5" stroke-linecap="round" stroke-linejoin="round" stroke-miterlimit="4" stroke-dashoffset="0" filter="url(#filter5445)" clip-path="url(#clipPath5381)" d="m811.279663,167.828461c73.374634,0 136.543091,14.997589 164.686829,36.49353c6.456604,-0.370651 13.02179,-0.575287 19.692383,-0.575256c87.560486,0 158.63678,33.334167 158.63678,74.404175c0,35.943512 -54.442993,65.955292 -126.725464,72.888855c-22.458008,38.870056 -122.936157,68.216644 -243.397217,68.216705c-136.953552,0 -248.112793,-37.92572 -248.112793,-84.660553l0.17804,-1.360962c-44.366943,-11.605957 -73.386932,-30.801849 -73.386932,-52.516479l0.637665,-5.514008c7.714569,-33.325958 81.625122,-58.608658 171.404114,-58.633804c17.363525,-28.20192 89.85022,-48.742249 176.386597,-48.742203z" id="path5187"/>
   <g opacity="0.697778" fill="#009800" display="inline" id="g5828" transform="matrix(-0.210623, 0, 0, 0.556237, -341.333, 359.596)">
    <path fill="#009800" stroke-width="5" stroke-linecap="round" stroke-linejoin="round" stroke-miterlimit="4" stroke-dashoffset="0" id="path5830" d="m-3418.015137,2091.647461c-12.955811,-57.300293 -65.418457,-104.14917 -110.755127,-139.778076c58.284424,5.963745 98.620361,69.925293 124.037842,117.933838c2.572754,8.976074 -2.445068,22.19751 -13.282715,21.844238z"/>
    <path fill="#009800" stroke-width="5" stroke-linecap="round" stroke-linejoin="round" stroke-miterlimit="4" stroke-dashoffset="0" id="path5832" d="m-3343.43457,2082.970703c16.922363,-30.073242 -35.47998,-114.769287 -26.255859,-150.659668c29.290039,54.484131 47.240967,92.356079 42.014648,140.913086c-3.416748,5.674805 -10.499023,6.567627 -15.758789,9.746582z"/>
    <path fill="#009800" stroke-width="5" stroke-linecap="round" stroke-linejoin="round" stroke-miterlimit="4" stroke-dashoffset="0" id="path5834" d="m-3268.922363,2080.605957c25.249268,-47.250732 55.258545,-94.921265 108.53833,-113.318359c-29.527588,20.459229 -63.095703,41.023926 -76.157715,76.460205c-6.845215,14.830078 -14.696045,32.876465 -32.380615,36.858154z"/>
    <path fill="#009800" stroke-width="5" stroke-linecap="round" stroke-linejoin="round" stroke-miterlimit="4" stroke-dashoffset="0" id="path5836" d="m-3160.149414,2089.564209c20.26416,-9.159912 40.634033,-61.067383 69.030518,-84.929077c-31.307129,78.41394 -42.603516,86.367798 -69.030518,84.929077z"/>
    <path fill="#009800" stroke-width="5" stroke-linecap="round" stroke-linejoin="round" stroke-miterlimit="4" stroke-dashoffset="0" id="path5838" d="m-3303.208008,2072.034668c12.679932,-15.090332 17.682129,-39.510498 39.270264,-44.824463c-11.711182,15.824341 -17.50708,39.779785 -39.270264,44.824463z"/>
    <path fill="#009800" stroke-width="5" stroke-linecap="round" stroke-linejoin="round" stroke-miterlimit="4" stroke-dashoffset="0" id="path5840" d="m-3382.005127,2046.72998c-10.250244,-21.322998 -21.087646,-42.660889 -36.165527,-61.046875c42.01709,18.971558 55.649658,50.30188 36.165527,61.046875z"/>
    <path fill="#009800" stroke-width="5" stroke-linecap="round" stroke-linejoin="round" stroke-miterlimit="4" stroke-dashoffset="0" id="path5842" d="m-3188.616699,2043.35498c18.253418,-21.315552 39.844238,-40.695557 65.959717,-51.724487c-22.991943,11.943115 -42.077393,44.868164 -65.959717,51.724487z"/>
   </g>
   <g opacity="0.697778" fill="#008c00" display="inline" transform="matrix(-0.284483, 0, 0, 0.391411, 808.187, 580.556)" id="g5844">
    <path fill="#008c00" stroke-width="5" stroke-linecap="round" stroke-linejoin="round" stroke-miterlimit="4" stroke-dashoffset="0" d="m-2516.393066,2243.95459c-12.955811,-57.300293 -65.418457,-104.14917 -110.755127,-139.778076c58.284424,5.963623 98.620361,69.925293 124.037842,117.933838c2.572754,8.976074 -2.445068,22.19751 -13.282715,21.844238z" id="path5846"/>
    <path fill="#008c00" stroke-width="5" stroke-linecap="round" stroke-linejoin="round" stroke-miterlimit="4" stroke-dashoffset="0" d="m-2441.8125,2235.277832c16.922363,-30.073242 -35.47998,-114.769287 -26.255859,-150.659668c29.290039,54.484131 47.240967,92.355957 42.014648,140.913086c-3.416748,5.674805 -10.499023,6.567627 -15.758789,9.746582z" id="path5848"/>
    <path fill="#008c00" stroke-width="5" stroke-linecap="round" stroke-linejoin="round" stroke-miterlimit="4" stroke-dashoffset="0" d="m-2367.300293,2232.913086c25.249268,-47.250732 55.258545,-94.921387 108.53833,-113.318359c-29.527588,20.459229 -63.095703,41.023926 -76.157715,76.460205c-6.845215,14.830078 -14.696045,32.876465 -32.380615,36.858154z" id="path5850"/>
    <path fill="#008c00" stroke-width="5" stroke-linecap="round" stroke-linejoin="round" stroke-miterlimit="4" stroke-dashoffset="0" d="m-2258.527344,2241.871338c20.26416,-9.159912 40.634033,-61.067383 69.030518,-84.928955c-31.307129,78.413818 -42.603516,86.367676 -69.030518,84.928955z" id="path5852"/>
    <path fill="#008c00" stroke-width="5" stroke-linecap="round" stroke-linejoin="round" stroke-miterlimit="4" stroke-dashoffset="0" d="m-2401.585938,2224.341797c12.679932,-15.090332 17.682129,-39.510498 39.270264,-44.824463c-11.711182,15.824463 -17.50708,39.779785 -39.270264,44.824463z" id="path5854"/>
    <path fill="#008c00" stroke-width="5" stroke-linecap="round" stroke-linejoin="round" stroke-miterlimit="4" stroke-dashoffset="0" d="m-2480.383057,2199.037109c-10.250244,-21.322998 -21.087646,-42.660889 -36.165527,-61.046875c42.01709,18.97168 55.649658,50.301758 36.165527,61.046875z" id="path5856"/>
    <path fill="#008c00" stroke-width="5" stroke-linecap="round" stroke-linejoin="round" stroke-miterlimit="4" stroke-dashoffset="0" d="m-2286.994629,2195.662109c18.253418,-21.31543 39.844238,-40.695557 65.959717,-51.724609c-22.991943,11.943359 -42.077393,44.868164 -65.959717,51.724609z" id="path5858"/>
   </g>
   <g opacity="0.697778" fill="#008c00" display="inline" id="g5860" transform="matrix(0.326029, 0, 0, 0.480164, 1333.72, 586.943)">
    <path fill="#008c00" stroke-width="5" stroke-linecap="round" stroke-linejoin="round" stroke-miterlimit="4" stroke-dashoffset="0" id="path5862" d="m2298.195801,2148.949219c-12.955811,-57.300293 -65.418457,-104.14917 -110.755127,-139.778076c58.284424,5.963745 98.620361,69.925293 124.037842,117.933838c2.572754,8.976074 -2.445068,22.19751 -13.282715,21.844238z"/>
    <path fill="#008c00" stroke-width="5" stroke-linecap="round" stroke-linejoin="round" stroke-miterlimit="4" stroke-dashoffset="0" id="path5864" d="m2372.776367,2140.272461c16.922363,-30.073242 -35.47998,-114.769287 -26.255859,-150.659668c29.290039,54.484131 47.240967,92.355957 42.014648,140.913086c-3.416748,5.674805 -10.499023,6.567627 -15.758789,9.746582z"/>
    <path fill="#008c00" stroke-width="5" stroke-linecap="round" stroke-linejoin="round" stroke-miterlimit="4" stroke-dashoffset="0" id="path5866" d="m2447.288574,2137.907715c25.249268,-47.250732 55.258545,-94.921265 108.53833,-113.318359c-29.527588,20.459229 -63.095703,41.023926 -76.157715,76.460205c-6.845215,14.830078 -14.696045,32.876465 -32.380615,36.858154z"/>
    <path fill="#008c00" stroke-width="5" stroke-linecap="round" stroke-linejoin="round" stroke-miterlimit="4" stroke-dashoffset="0" id="path5868" d="m2556.061523,2146.865967c20.26416,-9.159912 40.634033,-61.067383 69.030518,-84.928955c-31.307129,78.413818 -42.603516,86.367676 -69.030518,84.928955z"/>
    <path fill="#008c00" stroke-width="5" stroke-linecap="round" stroke-linejoin="round" stroke-miterlimit="4" stroke-dashoffset="0" id="path5870" d="m2413.00293,2129.336426c12.679932,-15.090332 17.682129,-39.510498 39.270264,-44.824463c-11.711182,15.824463 -17.50708,39.779785 -39.270264,44.824463z"/>
    <path fill="#008c00" stroke-width="5" stroke-linecap="round" stroke-linejoin="round" stroke-miterlimit="4" stroke-dashoffset="0" id="path5872" d="m2334.205811,2104.031738c-10.250244,-21.322998 -21.087646,-42.660889 -36.165527,-61.046875c42.01709,18.97168 55.649658,50.301758 36.165527,61.046875z"/>
    <path fill="#008c00" stroke-width="5" stroke-linecap="round" stroke-linejoin="round" stroke-miterlimit="4" stroke-dashoffset="0" id="path5874" d="m2527.594238,2100.656738c18.253418,-21.31543 39.844238,-40.695557 65.959717,-51.724609c-22.991943,11.943359 -42.077393,44.868164 -65.959717,51.724609z"/>
   </g>
   <g opacity="0.697778" fill="#008c00" display="inline" id="g5876" transform="matrix(-0.192158, 0, 0, 0.213906, 1121.46, 743.183)">
    <path fill="#008c00" stroke-width="5" stroke-linecap="round" stroke-linejoin="round" stroke-miterlimit="4" stroke-dashoffset="0" id="path5878" d="m-3751.719727,2670.477051c-12.955811,-57.300537 -65.418457,-104.149414 -110.755127,-139.77832c58.284424,5.963867 98.620361,69.925293 124.037842,117.933594c2.572754,8.976318 -2.445068,22.197754 -13.282715,21.844727z"/>
    <path fill="#008c00" stroke-width="5" stroke-linecap="round" stroke-linejoin="round" stroke-miterlimit="4" stroke-dashoffset="0" id="path5880" d="m-3677.13916,2661.800049c16.922363,-30.073486 -35.47998,-114.769287 -26.255859,-150.659668c29.290039,54.484131 47.240967,92.356201 42.014648,140.913086c-3.416748,5.674561 -10.499023,6.567627 -15.758789,9.746582z"/>
    <path fill="#008c00" stroke-width="5" stroke-linecap="round" stroke-linejoin="round" stroke-miterlimit="4" stroke-dashoffset="0" id="path5882" d="m-3602.626953,2659.435547c25.249268,-47.250977 55.258545,-94.921387 108.53833,-113.318604c-29.527588,20.459229 -63.095703,41.023926 -76.157715,76.460205c-6.845215,14.830078 -14.696045,32.876465 -32.380615,36.858398z"/>
    <path fill="#008c00" stroke-width="5" stroke-linecap="round" stroke-linejoin="round" stroke-miterlimit="4" stroke-dashoffset="0" id="path5884" d="m-3493.854004,2668.393555c20.26416,-9.159668 40.634033,-61.067383 69.030518,-84.929199c-31.307129,78.414063 -42.603516,86.36792 -69.030518,84.929199z"/>
    <path fill="#008c00" stroke-width="5" stroke-linecap="round" stroke-linejoin="round" stroke-miterlimit="4" stroke-dashoffset="0" id="path5886" d="m-3636.912598,2650.864014c12.679932,-15.090576 17.682129,-39.510498 39.270264,-44.824463c-11.711182,15.824219 -17.50708,39.779785 -39.270264,44.824463z"/>
    <path fill="#008c00" stroke-width="5" stroke-linecap="round" stroke-linejoin="round" stroke-miterlimit="4" stroke-dashoffset="0" id="path5888" d="m-3715.709717,2625.559326c-10.250244,-21.322998 -21.087646,-42.660889 -36.165527,-61.046875c42.01709,18.971436 55.649658,50.302002 36.165527,61.046875z"/>
    <path fill="#008c00" stroke-width="5" stroke-linecap="round" stroke-linejoin="round" stroke-miterlimit="4" stroke-dashoffset="0" id="path5890" d="m-3522.321289,2622.184326c18.253418,-21.315674 39.844238,-40.695557 65.959717,-51.724365c-22.991943,11.942871 -42.077393,44.868164 -65.959717,51.724365z"/>
   </g>
   <g opacity="0.697778" fill="#008c00" display="inline" transform="matrix(0.169077, 0, 0, 0.16319, 1217.85, 559.511)" id="g5892">
    <path fill="#008c00" stroke-width="5" stroke-linecap="round" stroke-linejoin="round" stroke-miterlimit="4" stroke-dashoffset="0" d="m4380.785156,2962.768066c-12.956055,-57.300293 -65.418457,-104.14917 -110.755371,-139.778076c58.284668,5.963623 98.620605,69.925293 124.038086,117.933838c2.572754,8.976074 -2.445313,22.19751 -13.282715,21.844238z" id="path5894"/>
    <path fill="#008c00" stroke-width="5" stroke-linecap="round" stroke-linejoin="round" stroke-miterlimit="4" stroke-dashoffset="0" d="m4455.365723,2954.091309c16.922363,-30.073242 -35.47998,-114.769287 -26.255859,-150.659668c29.290039,54.484131 47.241211,92.355957 42.014648,140.913086c-3.416992,5.674805 -10.499023,6.567627 -15.758789,9.746582z" id="path5896"/>
    <path fill="#008c00" stroke-width="5" stroke-linecap="round" stroke-linejoin="round" stroke-miterlimit="4" stroke-dashoffset="0" d="m4529.87793,2951.726563c25.249512,-47.250732 55.258789,-94.921387 108.538574,-113.318359c-29.527832,20.459229 -63.095703,41.023926 -76.158203,76.460205c-6.844727,14.830078 -14.695801,32.876465 -32.380371,36.858154z" id="path5898"/>
    <path fill="#008c00" stroke-width="5" stroke-linecap="round" stroke-linejoin="round" stroke-miterlimit="4" stroke-dashoffset="0" d="m4638.650879,2960.684814c20.26416,-9.159912 40.633789,-61.067383 69.030762,-84.928955c-31.307617,78.413818 -42.604004,86.367676 -69.030762,84.928955z" id="path5900"/>
    <path fill="#008c00" stroke-width="5" stroke-linecap="round" stroke-linejoin="round" stroke-miterlimit="4" stroke-dashoffset="0" d="m4495.592285,2943.155273c12.680176,-15.090332 17.682129,-39.510498 39.27002,-44.824463c-11.710938,15.824463 -17.506836,39.779785 -39.27002,44.824463z" id="path5902"/>
    <path fill="#008c00" stroke-width="5" stroke-linecap="round" stroke-linejoin="round" stroke-miterlimit="4" stroke-dashoffset="0" d="m4416.794922,2917.850586c-10.25,-21.322998 -21.087402,-42.660889 -36.165039,-61.046875c42.01709,18.97168 55.649414,50.301758 36.165039,61.046875z" id="path5904"/>
    <path fill="#008c00" stroke-width="5" stroke-linecap="round" stroke-linejoin="round" stroke-miterlimit="4" stroke-dashoffset="0" d="m4610.183594,2914.475586c18.253418,-21.31543 39.844238,-40.695557 65.959961,-51.724609c-22.992188,11.943359 -42.077637,44.868164 -65.959961,51.724609z" id="path5906"/>
   </g>
   <g fill="#009800" display="inline" transform="matrix(0.38604, 0, 0, 0.492842, -213.2, 373.302)" id="g5811">
    <path fill="#009800" stroke-width="5" stroke-linecap="round" stroke-linejoin="round" stroke-miterlimit="4" stroke-dashoffset="0" d="m1949.441406,2138.171387c-12.955933,-57.300537 -65.418335,-104.149414 -110.755249,-139.77832c58.284668,5.963745 98.620483,69.925293 124.038086,117.933594c2.572632,8.976318 -2.44519,22.197754 -13.282837,21.844727z" id="path5727"/>
    <path fill="#009800" stroke-width="5" stroke-linecap="round" stroke-linejoin="round" stroke-miterlimit="4" stroke-dashoffset="0" d="m2024.022095,2129.494385c16.922241,-30.073486 -35.47998,-114.769287 -26.255859,-150.659668c29.289795,54.484131 47.240967,92.356201 42.014404,140.913086c-3.416626,5.674561 -10.498779,6.567627 -15.758545,9.746582z" id="path5729"/>
    <path fill="#009800" stroke-width="5" stroke-linecap="round" stroke-linejoin="round" stroke-miterlimit="4" stroke-dashoffset="0" d="m2098.53418,2127.129883c25.249268,-47.250977 55.258545,-94.921509 108.53833,-113.318604c-29.527588,20.459229 -63.095703,41.023926 -76.157715,76.460205c-6.845215,14.830078 -14.696045,32.876465 -32.380615,36.858398z" id="path5731"/>
    <path fill="#009800" stroke-width="5" stroke-linecap="round" stroke-linejoin="round" stroke-miterlimit="4" stroke-dashoffset="0" d="m2207.307129,2136.087891c20.26416,-9.159668 40.634033,-61.067383 69.030518,-84.929199c-31.307129,78.414063 -42.603516,86.36792 -69.030518,84.929199z" id="path5733"/>
    <path fill="#009800" stroke-width="5" stroke-linecap="round" stroke-linejoin="round" stroke-miterlimit="4" stroke-dashoffset="0" d="m2064.248535,2118.55835c12.679932,-15.090576 17.682129,-39.510498 39.270264,-44.824463c-11.711182,15.824219 -17.50708,39.779785 -39.270264,44.824463z" id="path5735"/>
    <path fill="#009800" stroke-width="5" stroke-linecap="round" stroke-linejoin="round" stroke-miterlimit="4" stroke-dashoffset="0" d="m1985.451294,2093.253662c-10.25,-21.322998 -21.087524,-42.660889 -36.165405,-61.046875c42.01709,18.971436 55.649536,50.302002 36.165405,61.046875z" id="path5737"/>
    <path fill="#009800" stroke-width="5" stroke-linecap="round" stroke-linejoin="round" stroke-miterlimit="4" stroke-dashoffset="0" d="m2178.839844,2089.878662c18.253418,-21.315674 39.844238,-40.695557 65.959717,-51.724487c-22.991943,11.942993 -42.077393,44.868286 -65.959717,51.724487z" id="path5753"/>
   </g>
   <g transform="matrix(0.137234, 0.0203209, -0.00457729, 0.0689332, 874.477, 574.517)" id="g7741">
    <path fill="#ce5c00" stroke-width="3" stroke-linecap="round" stroke-linejoin="round" stroke-miterlimit="4" stroke-dashoffset="0" id="path7685" d="m6555.75,3997.093018c-8.370605,4.675049 -29.026367,0.398682 -40.749023,1.943359c-12.11084,1.595703 -25.183105,14.561035 -37.45459,12.665527c-11.879395,-1.835205 -19.475586,-16.275879 -28.150879,-20.813721c-8.962891,-4.688232 -27.161621,-3.748047 -31.06543,-10.035889c-3.777832,-6.086182 12.359863,-15.94751 15.602051,-22.108398c3.349121,-6.364258 -5.273926,-17.079346 3.753906,-21.619385c8.739258,-4.394531 28.026367,1.712402 39.599609,0.012939c11.956055,-1.755615 24.714355,-12.310059 37.080566,-10.748047c11.970215,1.511963 19.864746,12.341797 28.638672,16.696533c9.064941,4.498779 33.480469,5.825928 37.630371,11.952881c4.01709,5.930908 -20.553711,12.876465 -23.029297,19.104004c-2.557129,6.433594 6.791992,18.120361 -1.855957,22.950195z"/>
    <path fill="#fcc916" stroke-width="3" stroke-linecap="round" stroke-linejoin="round" stroke-miterlimit="4" stroke-dashoffset="0" d="m6666.305664,3931.174316c-8.544922,4.579102 -33.044922,-2.257324 -44.841309,0.185059c-11.796387,2.442139 -36.024902,15.548584 -48.95166,14.031494c-12.927246,-1.51709 -19.448242,-13.556641 -30.313477,-17.349854c-10.865234,-3.793213 -30.138184,-3.276367 -35.191406,-8.941162c-5.053223,-5.664795 6.668945,-18.919922 9.706055,-24.818115c3.037109,-5.898193 -5.782227,-16.68457 2.662109,-21.568115c8.444824,-4.883545 34.081055,-3.895752 46.653809,-5.519531c12.572754,-1.624023 26.706543,-9.401123 39.865723,-8.395264c13.160645,1.006348 26.017578,10.771729 36.948242,14.33667c10.931152,3.564941 31.833496,7.519287 37.643066,13.133545c5.80957,5.614502 -8.713867,12.061768 -10.158203,18.17749c-1.443359,6.115967 4.521484,22.148438 -4.022949,26.727783z" id="path7689"/>
    <path fill="#ad7fa8" stroke-width="3" stroke-linecap="round" stroke-linejoin="round" stroke-miterlimit="4" stroke-dashoffset="0" d="m6269.925781,4095.442139c-9.594238,6.694092 -36.739258,-0.201172 -50.323242,3.170654c-13.584473,3.371582 -37.201172,19.568359 -51.870605,17.65918c-14.67041,-1.909668 -23.091797,-18.186523 -35.089355,-23.718262c-11.998047,-5.531494 -35.373535,-6.245605 -40.910156,-14.462646c-5.536133,-8.217041 8.796387,-24.80835 11.858887,-33.406738c3.062988,-8.598633 -6.330566,-23.898193 3.192383,-30.864746c9.522461,-6.966309 37.454102,-5.311523 51.592285,-7.944824c14.138184,-2.633301 30.689453,-14.065186 45.510254,-12.614258c14.820801,1.450684 27.683594,15.691895 39.733887,21.020752c12.050293,5.329102 36.558594,10.035889 42.625488,18.215088c6.067383,8.179199 -10.232422,18.671631 -12.174805,27.463623c-1.942871,8.791992 5.44873,28.788086 -4.14502,35.482178z" id="path7691"/>
    <path fill="#f57900" stroke-width="3" stroke-linecap="round" stroke-linejoin="round" stroke-miterlimit="4" stroke-dashoffset="0" id="path7687" d="m6469.085938,4151.813965c-10.758301,5.882324 -31.302734,6.953613 -46.578613,9.015625c-15.276367,2.062012 -37.643066,11.952148 -52.682617,9.536133c-15.039063,-2.416016 -28.740723,-14.316406 -39.693359,-19.985352c-10.952637,-5.668945 -30.830566,-11.429199 -35.466309,-19.19043c-4.635742,-7.761719 10.26709,-19.71582 13.904297,-27.376465c3.636719,-7.660645 -0.554688,-22.631348 10.663086,-28.154541c11.217773,-5.523193 38.869141,-2.127197 53.452637,-4.597168c14.58252,-2.470215 28.710449,-11.041748 43.874023,-9.035645c15.164551,2.006104 28.791504,14.068115 39.694336,19.985596c10.902344,5.917236 39.475586,8.831299 44.418457,16.396973c4.942871,7.565918 -10.441895,20.028809 -14.523926,27.582031c-4.082031,7.553223 -6.303711,19.940918 -17.062012,25.823242z"/>
    <path fill="#ce5c00" stroke-width="3" stroke-linecap="round" stroke-linejoin="round" stroke-miterlimit="4" stroke-dashoffset="0" d="m6308.150391,4411.11377c-13.694336,8.501953 -47.485352,0.725586 -66.662598,3.53418c-19.812012,2.901855 -41.196777,26.479004 -61.272461,23.031738c-19.433105,-3.336426 -31.859375,-29.59668 -46.051758,-37.849121c-14.662109,-8.525391 -44.435059,-6.815918 -50.819824,-18.25c-6.181152,-11.067871 20.21875,-29.000488 25.522461,-40.203613c5.480469,-11.57373 -8.62793,-31.059082 6.141602,-39.314941c14.295898,-7.991699 45.848633,3.11377 64.781738,0.023438c19.559082,-3.192383 40.430176,-22.385742 60.660645,-19.544922c19.582031,2.749023 32.49707,22.443359 46.850586,30.362305c14.828613,8.181152 54.771484,10.59375 61.55957,21.736328c6.571289,10.785156 -33.624512,23.415039 -37.67334,34.740234c-4.183594,11.699707 11.11084,32.95166 -3.036621,41.734375z" id="path7693"/>
    <path fill="#3465a4" stroke-width="3" stroke-linecap="round" stroke-linejoin="round" stroke-miterlimit="4" stroke-dashoffset="0" id="path7695" d="m6515.76416,4289.382324c-11.32666,6.693848 -43.375488,-0.201172 -59.413086,3.17041c-16.038086,3.371582 -43.919922,19.568359 -61.239746,17.65918c-17.319336,-1.909668 -27.262207,-18.186523 -41.426758,-23.718262c-14.165527,-5.531738 -41.763184,-6.245605 -48.298828,-14.462891c-6.536621,-8.216797 10.384766,-24.808105 14.000488,-33.406738c3.615723,-8.598145 -7.474609,-23.897949 3.768555,-30.864258c11.243164,-6.966797 44.219727,-5.312012 60.911133,-7.944824c16.691895,-2.633301 36.23291,-14.06543 53.730469,-12.614746c17.497559,1.450684 32.683105,15.691895 46.910645,21.020996c14.226563,5.329102 43.162109,10.036133 50.324707,18.215332c7.162598,8.179199 -12.080566,18.671387 -14.374023,27.463379c-2.293457,8.791992 6.433594,28.788086 -4.893555,35.482422z"/>
    <path fill="#fcaf3e" stroke-width="3" stroke-linecap="round" stroke-linejoin="round" stroke-miterlimit="4" stroke-dashoffset="0" id="path7697" d="m6708.287109,4386.960938c-13.561035,7.399902 -52.444336,-3.647949 -71.166016,0.298828c-18.722168,3.946777 -57.174316,25.126953 -77.69043,22.675293c-20.516113,-2.45166 -30.865723,-21.907715 -48.109863,-28.037598c-17.244141,-6.129883 -47.832031,-5.294434 -55.852051,-14.44873c-8.019531,-9.154785 10.583984,-30.575195 15.404297,-40.106934c4.819824,-9.531738 -9.17627,-26.962402 4.225586,-34.854492c13.402832,-7.89209 54.089844,-6.29541 74.043457,-8.919434c19.953613,-2.624512 42.384766,-15.192383 63.270996,-13.566895c20.885742,1.625977 41.290527,17.406738 58.639648,23.167969c17.348145,5.76123 50.521484,12.151367 59.741699,21.224609c9.220215,9.072754 -13.82959,19.491699 -16.121094,29.375c-2.291504,9.883301 7.174805,35.791992 -6.38623,43.192383z"/>
    <path fill="#cc0000" stroke-width="3" stroke-linecap="round" stroke-linejoin="round" stroke-miterlimit="4" stroke-dashoffset="0" id="path7699" d="m6994.146484,4373.547363c-16.252441,10.447266 -56.35498,0.891113 -79.114746,4.342773c-23.513184,3.565918 -48.891602,32.539063 -72.718262,28.302734c-23.062988,-4.100586 -37.810547,-36.370605 -54.654297,-46.51123c-17.400879,-10.476074 -52.734863,-8.375488 -60.3125,-22.42627c-7.335449,-13.601074 23.995605,-35.637695 30.290527,-49.404785c6.50293,-14.222168 -10.239746,-38.166992 7.288086,-48.3125c16.966797,-9.819824 54.413574,3.827148 76.882813,0.029297c23.212891,-3.92334 47.98291,-27.508789 71.991699,-24.018555c23.240234,3.378906 38.567871,27.580078 55.602539,37.311523c17.598633,10.053223 65.001953,13.018555 73.059082,26.710449c7.79834,13.253906 -39.905762,28.773926 -44.711426,42.690918c-4.964844,14.376953 13.186523,40.492676 -3.603516,51.285645z"/>
    <path fill="#fcaf3e" stroke-width="3" stroke-linecap="round" stroke-linejoin="round" stroke-miterlimit="4" stroke-dashoffset="0" d="m6758.862305,4665.647949c-15.80957,8.716797 -61.140137,-4.296875 -82.966797,0.352051c-21.826172,4.648438 -66.654297,29.597168 -90.572754,26.708984c-23.918457,-2.887695 -35.983887,-25.805176 -56.087402,-33.025391c-20.103516,-7.220215 -55.763672,-6.236328 -65.11377,-17.019043c-9.349121,-10.782715 12.339355,-36.01416 17.958496,-47.241211c5.619629,-11.227539 -10.697754,-31.759277 4.926758,-41.054688c15.625488,-9.295898 63.059082,-7.415527 86.321289,-10.506348c23.262207,-3.091309 49.413574,-17.89502 73.762695,-15.97998c24.348633,1.914551 48.137207,20.50293 68.363281,27.289063c20.225098,6.786133 58.898926,14.312988 69.647949,25c10.749023,10.687012 -16.122559,22.959473 -18.794434,34.600586c-2.671387,11.641602 8.364746,42.15918 -7.445313,50.875977z" id="path7701"/>
    <path fill="#ad7fa8" stroke-width="3" stroke-linecap="round" stroke-linejoin="round" stroke-miterlimit="4" stroke-dashoffset="0" d="m7294.776855,4572.924805c-14.970703,9.40332 -57.328613,-0.282715 -78.525391,4.453613c-21.196777,4.736328 -58.047852,27.489746 -80.938965,24.807129c-22.890625,-2.682617 -36.031738,-25.547363 -54.75293,-33.318359c-18.722168,-7.770996 -55.197266,-8.773926 -63.835938,-20.317383c-8.638672,-11.542969 13.725586,-34.850098 18.504395,-46.929199c4.779297,-12.078613 -9.879395,-33.571777 4.980469,-43.35791c14.859863,-9.786133 58.444336,-7.461426 80.505371,-11.160645c22.061035,-3.699219 47.888184,-19.758789 71.01416,-17.720703c23.126465,2.038086 43.197266,22.043945 62.000977,29.529785c18.803223,7.486328 57.046875,14.098633 66.513184,25.588379c9.466797,11.490234 -15.966797,26.229492 -18.997559,38.580078c-3.03125,12.351074 8.50293,40.441406 -6.467773,49.845215z" id="path7703"/>
    <path fill="#f57900" stroke-width="3" stroke-linecap="round" stroke-linejoin="round" stroke-miterlimit="4" stroke-dashoffset="0" id="path7705" d="m7097.12793,4702.458496c-18.322754,10.306152 -53.312988,12.183105 -79.331055,15.796387c-26.018066,3.612793 -64.11084,20.940918 -89.725586,16.708008c-25.614746,-4.23291 -48.949707,-25.083496 -67.604004,-35.016113c-18.653809,-9.932129 -52.508301,-20.024414 -60.403809,-33.623047c-7.89502,-13.599121 17.48584,-34.542969 23.680176,-47.965332c6.193848,-13.422363 -0.944824,-39.652344 18.160645,-49.329102c19.106445,-9.677246 66.200684,-3.727051 91.038086,-8.055176c24.836914,-4.327637 48.897949,-19.345215 74.725098,-15.830566c25.82666,3.515137 49.035645,24.648438 67.604004,35.016113c18.568848,10.367676 67.23291,15.472656 75.651855,28.729004c8.418945,13.255859 -17.78418,35.091797 -24.73584,48.325684c-6.953613,13.233398 -10.736328,34.937988 -29.05957,45.244141z"/>
    <path fill="#fcc916" stroke-width="3" stroke-linecap="round" stroke-linejoin="round" stroke-miterlimit="4" stroke-dashoffset="0" id="path7707" d="m6737.502441,4093.041504c-13.388184,6.999023 -51.774902,-3.449951 -70.258301,0.282715c-18.48291,3.732422 -56.444336,23.764648 -76.69873,21.445801c-20.254395,-2.318359 -30.47168,-20.719971 -47.496094,-26.517334c-17.023926,-5.797363 -47.22168,-5.007568 -55.13916,-13.665527c-7.916992,-8.658203 10.44873,-28.91748 15.20752,-37.932373c4.758789,-9.014648 -9.059082,-25.500488 4.171875,-32.9646c13.231934,-7.463867 53.399902,-5.953857 73.098633,-8.436035c19.69873,-2.482178 41.844238,-14.368652 62.463379,-12.830811c20.619141,1.537598 40.763672,16.462891 57.891602,21.911621c17.126953,5.448975 49.876953,11.492676 58.979492,20.073486c9.102051,8.581299 -13.65332,18.435303 -15.915527,27.782715c-2.262207,9.347168 7.083008,33.851074 -6.304688,40.850342z"/>
    <path fill="#ce5c00" stroke-width="3" stroke-linecap="round" stroke-linejoin="round" stroke-miterlimit="4" stroke-dashoffset="0" d="m6216.172852,3902.908447c-10.953125,5.972412 -37.980957,0.509521 -53.320313,2.48291c-15.84668,2.03833 -32.95166,18.601074 -49.009277,16.179688c-15.543457,-2.344238 -25.48291,-20.791992 -36.834961,-26.589111c-11.727539,-5.98877 -35.541504,-4.788086 -40.648438,-12.820313c-4.943848,-7.775146 16.171875,-20.372803 20.414551,-28.24292c4.383301,-8.130371 -6.901367,-21.818848 4.912109,-27.618408c11.435059,-5.61377 36.672363,2.187744 51.816406,0.016602c15.644531,-2.242676 32.338379,-15.72583 48.519531,-13.730469c15.663086,1.931641 25.993164,15.766602 37.474121,21.32959c11.86084,5.74707 43.809082,7.442383 49.23877,15.269531c5.256348,7.57666 -26.894531,16.448975 -30.133301,24.404785c-3.346191,8.21875 8.887207,23.148193 -2.429199,29.318115z" id="path7709"/>
    <path fill="#ce5c00" stroke-width="3" stroke-linecap="round" stroke-linejoin="round" stroke-miterlimit="4" stroke-dashoffset="0" id="path7711" d="m6946.910156,4508.483887c-17.166016,7.762207 -59.522949,0.662109 -83.562012,3.226563c-24.834473,2.649902 -51.640625,24.17627 -76.805664,21.028809c-24.359375,-3.046387 -39.936035,-27.022461 -57.726563,-34.557129c-18.378906,-7.783691 -55.699219,-6.223145 -63.703125,-16.662598c-7.747559,-10.10498 25.344727,-26.478027 31.993164,-36.706543c6.869141,-10.566895 -10.81543,-28.35791 7.698242,-35.895508c17.92041,-7.296387 57.47168,2.843262 81.20459,0.021973c24.517578,-2.915039 50.679688,-20.438965 76.038574,-17.845215c24.546387,2.510254 40.735352,20.491211 58.728027,27.721191c18.587402,7.469727 68.65625,9.672852 77.165527,19.845703c8.236816,9.847168 -42.148438,21.378418 -47.224609,31.718262c-5.243652,10.682129 13.928223,30.085449 -3.806152,38.104492z"/>
    <path fill="#f57900" stroke-width="3" stroke-linecap="round" stroke-linejoin="round" stroke-miterlimit="4" stroke-dashoffset="0" d="m6548.317383,4494.361328c-13.145996,8.696289 -45.583984,0.741699 -63.993652,3.615234c-19.019043,2.968262 -39.547852,27.084961 -58.819824,23.558594c-18.655273,-3.413086 -30.583984,-30.274414 -44.208496,-38.715332c-14.075195,-8.720215 -42.65625,-6.97168 -48.785645,-18.66748c-5.933105,-11.321289 19.409668,-29.664551 24.500977,-41.124023c5.260254,-11.838379 -8.282227,-31.77002 5.895508,-40.214844c13.724121,-8.174316 44.013672,3.185547 62.188477,0.024414c18.776855,-3.265625 38.812012,-22.898438 58.232422,-19.992676c18.79834,2.8125 31.196289,22.957031 44.975586,31.057129c14.234863,8.368652 52.578125,10.836914 59.095215,22.233887c6.308594,11.032227 -32.27832,23.951172 -36.165527,35.535645c-4.016113,11.967285 10.666504,33.705566 -2.915039,42.689453z" id="path7713"/>
    <path fill="#ad7fa8" stroke-width="3" stroke-linecap="round" stroke-linejoin="round" stroke-miterlimit="4" stroke-dashoffset="0" id="path7715" d="m6808.683105,4244.760742c-13.744629,8.410156 -52.633301,-0.252441 -72.094238,3.983398c-19.461426,4.23584 -53.294434,24.584961 -74.311035,22.186035c-21.016602,-2.398926 -33.081055,-22.848145 -50.269043,-29.79834c-17.187988,-6.949707 -50.676758,-7.84668 -58.60791,-18.17041c-7.931641,-10.32373 12.600586,-31.167969 16.98877,-41.970703c4.387695,-10.802734 -9.069824,-30.024902 4.573242,-38.776855c13.642578,-8.752441 53.657715,-6.67334 73.912109,-9.981934c20.254395,-3.308105 43.966309,-17.670898 65.19873,-15.848145c21.231934,1.822754 39.65918,19.714844 56.92334,26.409668c17.26416,6.695313 52.375,12.608887 61.066406,22.884766c8.691406,10.275879 -14.659668,23.458008 -17.442383,34.503906c-2.783203,11.045898 7.806641,36.168457 -5.937988,44.578613z"/>
    <path fill="#f57900" stroke-width="3" stroke-linecap="round" stroke-linejoin="round" stroke-miterlimit="4" stroke-dashoffset="0" d="m6330.028809,3993.543701c-10.758301,5.882568 -31.302734,6.953857 -46.578613,9.015869c-15.276367,2.062256 -37.643066,11.952148 -52.682129,9.536377c-15.039551,-2.416016 -28.741211,-14.31665 -39.693848,-19.985596c-10.952637,-5.668945 -30.830566,-11.428955 -35.46582,-19.190674c-4.635742,-7.761475 10.26709,-19.715332 13.903809,-27.376221c3.636719,-7.660645 -0.554688,-22.631348 10.663086,-28.154541c11.217773,-5.523193 38.869141,-2.127197 53.452637,-4.597168c14.58252,-2.470215 28.710449,-11.041748 43.874512,-9.035645c15.164063,2.006104 28.791016,14.068115 39.693848,19.985596c10.902344,5.917236 39.475586,8.831299 44.418945,16.396973c4.942383,7.565918 -10.441895,20.029053 -14.524414,27.582031c-4.082031,7.553223 -6.303711,19.940674 -17.062012,25.822998z" id="path7717"/>
    <path fill="#fcaf3e" stroke-width="3" stroke-linecap="round" stroke-linejoin="round" stroke-miterlimit="4" stroke-dashoffset="0" d="m6298.586426,4217.280273c-9.891113,6.602539 -38.253418,-3.254395 -51.909668,0.266602c-13.655762,3.520996 -41.703125,22.417969 -56.667969,20.230957c-14.965332,-2.1875 -22.513672,-19.545898 -35.091797,-25.015137c-12.578125,-5.46875 -34.88916,-4.723633 -40.73877,-12.890625c-5.850098,-8.16748 7.719238,-27.278809 11.23584,-35.782715c3.515625,-8.503906 -6.693848,-24.055664 3.082031,-31.09668c9.775879,-7.041016 39.453613,-5.616211 54.007813,-7.958008c14.554688,-2.341309 30.916504,-13.554199 46.150879,-12.103516c15.234375,1.450195 30.117676,15.529785 42.771973,20.669922c12.654297,5.140137 36.851563,10.841309 43.57666,18.936035c6.725098,8.094727 -10.087402,17.390137 -11.758789,26.208008c-1.671387,8.817383 5.233398,31.932617 -4.658203,38.535156z" id="path7719"/>
   </g>
   <path opacity="0.698" fill="#1e9e00" stroke-width="3" stroke-linecap="round" stroke-linejoin="round" stroke-miterlimit="4" stroke-dashoffset="0" id="path7788" d="m2186.07373,961.37561c1.522949,0.316284 1.903809,1.04248 3.182617,2.128418c1.664063,1.863647 5.03418,7.445068 4.655029,8.357666c-0.502686,1.644043 -4.736816,-7.671753 -7.837646,-10.486084zm28.590332,4.063965c-3.614258,6.716309 -3.95459,7.219482 -6.773438,7.12207c0.598633,-1.23938 2.317383,-2.248657 3.523438,-3.42627c1.285156,-1.255371 1.983887,-3.602905 3.25,-3.695801zm-12.70459,0.244873c4.11377,4.388306 4.553223,5.96875 3.860352,6.462891c-1.26709,0.477051 -0.990479,-0.767944 -3.860352,-6.462891zm-7.696045,0.94104c1.012695,-0.168335 1.750488,1.351563 2.153076,2.594727c1.027832,3.174316 1.039551,2.716187 0.34668,2.985229c-0.955322,0.37085 -0.949219,-2.868042 -2.499756,-5.579956zm-6.811768,-0.291504c1.059814,0.031006 1.611328,1.316895 2.354492,2.503784c0.746582,2.263184 2.919434,3.669067 1.386963,3.755005c-1.523682,0.085571 -2.577881,-3.57251 -3.741455,-6.258789zm11.36084,0.870605c3.342773,3.63916 4.057861,4.755371 2.715332,4.90564c-0.865723,0.096802 -0.934082,-0.792358 -1.922363,-2.287598c-0.636719,-0.963013 -1.430176,-1.806885 -0.792969,-2.618042z"/>
  </g>
 </g>
</svg>